<?xml version="1.0" standalone="no"?>
<!DOCTYPE svg PUBLIC "-//W3C//DTD SVG 20010904//EN"
 "http://www.w3.org/TR/2001/REC-SVG-20010904/DTD/svg10.dtd">
<svg version="1.0" xmlns="http://www.w3.org/2000/svg"
 width="1000.000000pt" height="500.000000pt" viewBox="0 0 1000.000000 500.000000"
 preserveAspectRatio="xMidYMid meet">

<g transform="translate(0.000000,500.000000) scale(0.100000,-0.100000)"
fill="#000000" stroke="none">
<path d="M0 3225 l0 -1775 24 0 c14 0 28 5 31 10 8 13 45 13 45 0 0 -30 -23
-45 -61 -42 -34 4 -39 1 -39 -17 0 -23 28 -28 59 -12 19 11 64 3 56 -9 -2 -4
1 -15 9 -25 11 -15 15 -16 34 -4 14 9 21 22 20 38 -2 15 4 27 17 35 11 6 22
14 25 18 3 3 21 8 40 10 32 3 35 5 32 33 -2 17 -12 49 -22 72 -19 43 -16 61 6
42 9 -8 18 -5 33 10 12 12 30 21 42 21 28 0 115 93 123 132 3 17 6 45 6 62 0
24 7 35 30 48 16 9 32 28 36 42 4 17 15 27 36 31 22 5 27 10 19 18 -19 19 -12
36 16 39 19 2 29 11 36 32 8 25 7 32 -14 49 l-23 19 26 51 c14 29 28 60 32 70
6 20 26 23 26 3 0 -22 29 -27 39 -7 12 21 5 31 -21 31 -23 0 -23 23 -1 57 17
26 17 27 0 20 -22 -8 -22 -7 8 33 16 22 25 47 25 71 0 21 5 41 10 44 6 3 10 1
10 -4 0 -6 5 -11 10 -11 6 0 10 13 10 29 0 30 19 45 45 35 18 -7 18 -4 4 32
-10 28 -10 28 10 9 12 -10 21 -24 21 -32 0 -19 30 -29 40 -12 7 11 15 10 45
-4 20 -9 42 -17 49 -17 17 0 30 27 27 56 -2 16 6 24 28 32 17 6 37 24 46 42
17 33 35 32 35 -3 l0 -21 21 21 c23 22 18 46 -6 36 -21 -7 -19 16 3 41 25 28
46 98 37 125 -5 18 -2 21 24 21 16 0 33 -4 36 -10 3 -5 17 -10 31 -10 19 0 24
5 24 24 0 31 -24 40 -67 25 -26 -8 -38 -8 -46 1 -9 9 -7 15 7 26 27 19 55 18
93 -6 19 -11 35 -15 38 -10 11 18 38 11 31 -7 -8 -20 10 -33 47 -33 16 0 27 5
27 13 0 18 -32 47 -52 47 -22 0 -50 34 -38 46 5 5 11 19 13 31 2 13 6 26 10
29 4 4 7 15 7 25 0 17 35 49 52 49 15 0 8 -20 -12 -37 -20 -17 -20 -17 2 -40
29 -31 36 -29 44 12 4 20 10 32 17 28 12 -7 1 14 -21 39 -11 13 -13 29 -8 63
4 25 11 43 17 40 5 -4 9 -2 9 4 0 5 17 15 38 21 20 7 44 18 52 26 17 15 33 8
43 -19 4 -10 12 -15 17 -12 6 4 17 1 25 -5 13 -10 15 -8 15 13 0 19 -6 26 -22
29 -35 5 -33 35 5 73 39 39 47 42 47 20 0 -10 11 -15 35 -15 28 0 35 4 35 20
0 23 0 23 33 11 34 -13 44 -48 20 -67 -16 -14 -15 -15 22 -9 45 8 75 21 75 35
0 16 -20 22 -35 10 -10 -8 -15 -8 -21 1 -5 8 6 24 28 44 20 17 40 46 46 65 5
20 15 34 22 32 6 -1 18 2 26 9 13 11 34 5 34 -11 0 -5 5 -21 10 -36 l11 -28
29 33 c21 22 30 43 30 66 0 43 19 85 38 85 9 0 27 -14 42 -31 23 -28 29 -30
47 -20 12 6 33 11 47 11 35 0 56 10 56 26 0 16 -36 19 -46 3 -3 -6 -17 -8 -31
-4 -14 3 -31 1 -39 -6 -12 -9 -12 -6 -3 20 6 17 9 37 6 44 -3 7 8 25 23 41
l28 28 79 -20 c75 -20 79 -20 103 -3 22 16 27 16 39 4 7 -8 19 -12 27 -9 7 3
16 1 20 -5 4 -7 12 -5 22 4 10 8 29 17 43 21 38 8 42 31 14 62 -28 31 -30 35
-12 32 6 -2 11 3 9 10 -2 10 5 12 27 7 23 -5 34 -1 55 20 14 14 26 30 26 36 0
6 10 3 22 -5 33 -23 61 -21 53 4 -4 12 -2 20 5 20 6 0 27 16 47 35 30 29 44
35 79 35 52 0 74 8 74 26 0 27 36 35 84 17 43 -16 47 -16 81 0 44 21 49 21 70
0 14 -14 18 -14 25 -2 5 8 7 24 3 36 -3 13 -2 23 2 23 13 0 50 -23 58 -36 9
-15 125 -10 141 6 15 15 29 12 23 -4 -8 -21 33 -33 47 -14 11 15 76 30 76 17
0 -3 -7 -12 -15 -19 -12 -10 -13 -16 -5 -24 8 -8 15 -6 24 7 13 16 36 24 36
11 0 -4 -8 -13 -17 -21 -17 -14 -17 -14 0 -9 10 3 25 6 33 6 9 0 13 4 9 9 -3
5 4 17 16 25 21 14 23 14 36 -11 7 -14 13 -31 13 -39 0 -8 9 -19 20 -26 11 -7
20 -18 20 -25 0 -19 35 -34 48 -21 8 8 15 8 27 -2 13 -11 14 -10 9 4 -4 10 0
18 10 22 8 3 18 21 22 40 8 45 21 43 40 -6 9 -22 20 -40 25 -40 14 0 11 24 -6
46 -19 25 -19 54 0 54 9 0 18 -8 22 -17 30 -85 73 -143 57 -75 -7 24 -6 26 9
13 10 -7 17 -9 17 -3 0 13 36 4 51 -14 20 -25 29 -15 29 34 0 40 -4 50 -30 71
-24 19 -28 26 -19 38 10 11 8 15 -9 20 -12 3 -22 9 -22 14 0 15 42 10 62 -7
17 -16 17 -18 0 -30 -23 -17 -4 -36 42 -40 30 -3 36 0 36 16 0 15 7 20 24 20
33 0 42 -17 20 -41 -9 -10 -14 -22 -10 -26 4 -4 22 11 42 32 l35 40 16 -22 c8
-13 21 -23 28 -23 7 0 18 -7 25 -15 9 -11 33 -15 84 -15 42 0 82 -6 98 -14 15
-8 36 -12 47 -9 25 6 44 -27 35 -63 -6 -24 -4 -25 22 -22 20 2 29 8 28 21 -1
12 6 17 26 17 15 0 35 9 45 20 17 19 17 20 -9 29 -28 11 -35 31 -10 31 9 0 14
8 13 18 -4 48 1 62 24 62 29 0 47 -35 47 -89 l0 -39 37 19 c21 10 43 19 49 19
7 0 15 7 18 16 4 11 19 15 61 13 41 -2 60 2 74 15 32 29 45 14 16 -18 -14 -15
-24 -30 -22 -33 3 -2 31 -7 64 -9 60 -6 96 -26 86 -50 -3 -8 -9 -11 -14 -8 -5
3 -9 -5 -8 -18 0 -13 3 -17 6 -10 8 19 22 14 41 -15 11 -19 27 -29 47 -31 l30
-2 -22 19 c-41 35 -18 59 38 39 26 -9 37 -7 71 12 l41 23 18 -24 c10 -13 19
-31 19 -40 0 -21 28 -33 45 -19 7 6 21 7 30 3 13 -4 16 -3 11 5 -4 7 -4 12 1
12 4 0 25 16 47 35 21 19 41 35 45 35 16 -1 41 -29 41 -47 0 -17 9 -22 45 -28
25 -3 43 -10 40 -15 -3 -5 -11 -7 -19 -4 -7 3 -13 -2 -13 -10 0 -16 49 -32 66
-22 5 4 12 2 15 -3 6 -10 96 6 111 20 5 5 30 9 56 9 54 0 81 8 73 21 -3 5 0 9
5 9 6 0 11 -4 11 -10 0 -5 7 -10 15 -10 8 0 15 -3 15 -8 0 -16 67 -43 100 -40
55 4 75 35 48 77 -6 10 -8 27 -4 37 7 18 8 18 17 2 16 -29 50 -21 91 23 36 38
40 40 45 20 3 -12 12 -21 20 -21 7 0 25 -8 40 -17 24 -16 26 -16 38 0 15 21
51 22 63 1 14 -25 66 -15 70 14 3 21 67 72 91 72 16 0 22 -32 9 -47 -10 -12
-9 -17 4 -24 14 -8 16 -26 15 -104 -1 -100 9 -129 36 -107 11 10 20 7 43 -10
41 -32 54 -45 54 -55 0 -5 15 -16 33 -24 17 -8 36 -24 42 -36 5 -13 16 -23 23
-23 7 0 10 5 6 11 -5 8 -1 8 14 0 33 -18 59 -13 66 12 6 21 7 21 21 3 8 -11
32 -20 60 -24 33 -3 56 -14 78 -33 17 -16 39 -29 49 -29 9 0 21 -7 26 -16 8
-14 10 -14 21 0 8 9 20 16 28 16 8 0 11 5 8 10 -3 6 -1 10 4 10 6 0 12 -10 12
-22 1 -17 2 -19 6 -5 6 21 12 21 35 0 17 -15 20 -15 28 -3 8 12 10 9 10 -10 0
-15 -5 -31 -10 -36 -30 -30 56 -138 100 -127 10 3 35 -3 55 -13 l37 -17 25 31
c13 18 32 32 42 32 25 0 52 -32 41 -49 -11 -18 -2 -41 25 -63 26 -22 28 -22
40 4 14 33 30 28 33 -10 3 -28 6 -31 18 -21 11 9 17 9 28 0 11 -10 16 -8 21 9
8 26 28 21 30 -8 2 -23 12 -39 20 -31 2 3 5 28 7 57 3 56 6 59 41 40 12 -7 23
-14 25 -15 2 0 -3 -11 -10 -22 -9 -16 -10 -24 -2 -29 7 -4 13 -16 16 -27 2
-11 10 -20 18 -20 8 0 21 -4 28 -8 16 -10 16 16 0 60 -11 29 -10 35 10 53 25
24 32 25 32 5 0 -8 3 -15 8 -15 12 0 42 -60 42 -84 0 -12 6 -30 13 -40 12 -16
14 -16 26 -2 8 9 19 16 25 16 6 0 22 9 36 20 29 22 40 25 40 9 0 -7 7 -17 15
-23 11 -9 12 -20 4 -61 -6 -27 -17 -56 -24 -63 -10 -11 -9 -20 6 -48 9 -20 23
-50 29 -67 7 -18 14 -27 16 -22 2 6 29 10 59 10 45 0 57 -4 70 -22 14 -19 14
-23 0 -30 -8 -5 -18 -23 -21 -41 -5 -25 -3 -32 10 -32 8 0 45 -14 81 -32 51
-25 65 -37 65 -55 0 -23 13 -36 45 -40 19 -4 26 -11 55 -68 12 -23 21 -30 43
-28 15 1 27 -3 27 -10 0 -7 9 -20 20 -30 11 -9 20 -22 21 -29 2 -32 9 -52 22
-66 17 -16 37 -9 37 14 0 31 19 12 25 -25 4 -22 13 -45 21 -52 8 -6 14 -21 14
-33 0 -28 39 -54 51 -34 9 14 11 10 13 -37 1 -15 7 -19 26 -17 24 3 24 2 5
-13 -20 -15 -20 -15 2 -33 12 -11 23 -31 25 -47 2 -21 11 -30 38 -39 29 -9 35
-16 33 -36 -2 -29 37 -119 52 -120 6 0 35 -34 65 -75 30 -41 60 -75 66 -75 6
0 17 -13 24 -30 7 -16 16 -30 21 -30 5 0 9 -7 9 -15 0 -8 9 -15 20 -15 11 0
20 -7 20 -15 0 -9 11 -20 25 -25 14 -5 28 -16 31 -25 4 -10 14 -13 30 -9 19 5
24 1 30 -20 3 -14 10 -26 14 -26 5 0 11 -9 15 -19 3 -11 23 -26 45 -35 30 -12
39 -21 38 -38 -4 -62 4 -88 37 -128 19 -23 38 -54 41 -69 11 -50 15 -61 24
-61 23 0 71 -64 97 -129 19 -51 35 -76 50 -82 12 -4 29 -21 37 -37 8 -16 22
-32 31 -35 13 -6 15 201 15 2018 l0 2025 -5000 0 -5000 0 0 -1775z m4050 865
c0 -5 -4 -10 -10 -10 -5 0 -10 5 -10 10 0 6 5 10 10 10 6 0 10 -4 10 -10z
m-120 -26 c0 -16 -23 -44 -35 -44 -15 0 -21 31 -8 43 8 8 43 9 43 1z m1660
-74 c0 -5 10 -10 23 -10 19 -1 20 -2 5 -11 -12 -7 -23 -6 -38 3 -24 15 -26 28
-5 28 8 0 15 -4 15 -10z m108 -33 c-5 -34 -28 -33 -28 2 0 23 4 29 16 24 8 -3
14 -15 12 -26z m-238 3 c0 -5 -4 -10 -10 -10 -5 0 -10 5 -10 10 0 6 5 10 10
10 6 0 10 -4 10 -10z m1590 -310 c0 -5 -5 -10 -11 -10 -5 0 -7 5 -4 10 3 6 8
10 11 10 2 0 4 -4 4 -10z m817 -267 c-3 -10 -5 -2 -5 17 0 19 2 27 5 18 2 -10
2 -26 0 -35z m-6125 -5 c-7 -7 -12 -8 -12 -2 0 14 12 26 19 19 2 -3 -1 -11 -7
-17z m6041 -28 c-3 -12 -8 -19 -11 -16 -5 6 5 36 12 36 2 0 2 -9 -1 -20z m170
-49 c-3 -13 -11 -17 -24 -14 -33 9 -22 24 23 32 3 0 4 -7 1 -18z m-6703 -351
c0 -5 -4 -10 -10 -10 -5 0 -10 5 -10 10 0 6 5 10 10 10 6 0 10 -4 10 -10z
m-64 -37 c-10 -10 -19 5 -10 18 6 11 8 11 12 0 2 -7 1 -15 -2 -18z"/>
<path d="M3032 3948 c6 -18 28 -21 28 -4 0 9 -7 16 -16 16 -9 0 -14 -5 -12
-12z"/>
<path d="M4200 3940 c0 -5 5 -10 11 -10 5 0 7 5 4 10 -3 6 -8 10 -11 10 -2 0
-4 -4 -4 -10z"/>
<path d="M3625 3920 c3 -5 8 -10 11 -10 2 0 4 5 4 10 0 6 -5 10 -11 10 -5 0
-7 -4 -4 -10z"/>
<path d="M3190 3890 c0 -5 5 -10 10 -10 6 0 10 5 10 10 0 6 -4 10 -10 10 -5 0
-10 -4 -10 -10z"/>
<path d="M3060 3855 c-8 -9 -8 -15 -2 -15 12 0 26 19 19 26 -2 2 -10 -2 -17
-11z"/>
<path d="M6495 3840 c-3 -5 1 -10 10 -10 9 0 13 5 10 10 -3 6 -8 10 -10 10 -2
0 -7 -4 -10 -10z"/>
<path d="M2770 3806 c0 -15 18 -31 26 -23 7 7 -7 37 -17 37 -5 0 -9 -6 -9 -14z"/>
<path d="M2863 3794 c-3 -8 -1 -20 6 -27 8 -8 11 -7 11 6 0 9 4 17 9 17 15 0
33 -29 28 -44 -3 -8 0 -19 7 -25 10 -9 15 -6 20 11 10 38 7 58 -9 58 -8 0 -15
5 -15 10 0 16 -50 11 -57 -6z"/>
<path d="M3040 3792 c0 -7 -13 -12 -29 -12 -33 0 -44 -11 -35 -34 7 -17 34
-22 34 -6 0 5 10 9 22 7 25 -2 37 28 19 46 -8 8 -11 8 -11 -1z"/>
<path d="M3850 3790 c0 -5 5 -10 10 -10 6 0 10 5 10 10 0 6 -4 10 -10 10 -5 0
-10 -4 -10 -10z"/>
<path d="M3310 3710 c0 -5 5 -10 10 -10 6 0 10 5 10 10 0 6 -4 10 -10 10 -5 0
-10 -4 -10 -10z"/>
<path d="M2265 3630 c3 -5 13 -10 21 -10 8 0 12 5 9 10 -3 6 -13 10 -21 10 -8
0 -12 -4 -9 -10z"/>
<path d="M2370 3625 c0 -5 77 -55 85 -55 3 0 5 9 5 19 0 22 -23 34 -37 20 -6
-6 -14 -4 -23 6 -12 14 -30 21 -30 10z"/>
<path d="M2955 3611 c-7 -12 12 -24 25 -16 11 7 4 25 -10 25 -5 0 -11 -4 -15
-9z"/>
<path d="M2229 3498 c-13 -49 0 -79 26 -58 11 9 11 17 3 36 -9 20 -26 32 -29
22z"/>
<path d="M2170 3405 c0 -8 5 -15 10 -15 6 0 10 7 10 15 0 8 -4 15 -10 15 -5 0
-10 -7 -10 -15z"/>
<path d="M2240 3404 c0 -8 5 -12 10 -9 6 3 10 10 10 16 0 5 -4 9 -10 9 -5 0
-10 -7 -10 -16z"/>
<path d="M1950 3340 c-20 -12 -5 -24 16 -12 9 5 12 12 7 15 -5 3 -15 2 -23 -3z"/>
<path d="M5028 3263 c7 -3 16 -2 19 1 4 3 -2 6 -13 5 -11 0 -14 -3 -6 -6z"/>
<path d="M4590 3250 c-8 -5 -10 -10 -5 -10 6 0 17 5 25 10 8 5 11 10 5 10 -5
0 -17 -5 -25 -10z"/>
<path d="M4497 3234 c-8 -8 1 -24 13 -24 4 0 10 7 14 15 5 15 -14 21 -27 9z"/>
<path d="M4545 3208 c-13 -44 -14 -69 -2 -65 7 2 13 13 15 25 4 24 18 29 24
10 4 -12 28 -3 28 12 0 13 -30 40 -45 40 -7 0 -16 -10 -20 -22z"/>
<path d="M4713 3215 c-7 -20 -5 -21 35 -30 36 -7 47 13 12 22 -11 3 -20 9 -20
14 0 15 -20 10 -27 -6z"/>
<path d="M5666 3222 c-3 -5 -3 -18 0 -29 5 -16 17 -22 57 -27 30 -3 65 -1 83
6 17 6 40 8 50 3 14 -5 1 -12 -51 -25 -38 -10 -83 -23 -100 -30 -96 -40 -153
-54 -169 -41 -7 6 -15 8 -19 5 -3 -3 -14 -1 -24 4 -13 7 -23 6 -35 -2 -16 -12
-16 -15 6 -35 14 -13 29 -20 34 -17 13 8 112 -13 112 -24 0 -4 -20 -5 -45 -2
-42 4 -60 -7 -35 -23 20 -12 9 -36 -19 -41 -32 -7 -48 -31 -31 -48 7 -7 19 -1
38 17 22 21 31 24 40 15 17 -17 15 -28 -4 -28 -25 0 -11 -23 25 -42 19 -10 28
-19 21 -23 -7 -4 -9 -19 -5 -36 5 -21 2 -31 -9 -35 -17 -7 -22 -24 -7 -24 5 0
25 -16 44 -35 19 -19 42 -35 51 -35 9 0 16 -4 16 -10 0 -15 40 -12 46 4 6 15
49 31 72 27 8 -1 19 2 25 8 17 13 170 11 179 -3 12 -17 9 -36 -4 -36 -24 0
-39 -16 -44 -46 -3 -16 -9 -30 -15 -32 -22 -8 -7 -50 30 -80 34 -27 40 -29 53
-16 12 12 20 13 41 3 31 -14 33 -21 12 -39 -12 -10 -19 -10 -27 -2 -7 7 -21
12 -31 12 -11 0 -35 9 -53 21 -27 16 -42 19 -78 14 -38 -6 -53 -3 -91 19 -25
15 -45 31 -45 36 0 6 -14 10 -30 10 -22 0 -33 -6 -40 -22 -9 -20 -10 -19 -7
10 2 17 -1 32 -6 32 -6 0 -19 8 -29 17 -17 15 -19 15 -32 -3 -19 -24 -26 -16
-57 64 -22 57 -45 81 -73 74 -13 -4 -76 48 -76 62 0 29 -51 48 -134 52 -45 1
-82 8 -84 13 -2 6 8 11 21 11 32 0 57 9 57 21 0 5 -7 9 -16 9 -12 0 -15 7 -12
25 6 31 -6 41 -59 48 -68 8 -123 -2 -123 -24 0 -10 5 -21 10 -24 6 -3 10 -11
10 -17 0 -6 -12 -3 -26 7 -25 16 -25 16 -14 -6 11 -20 10 -21 -9 -16 -12 3
-35 1 -52 -3 -26 -8 -31 -6 -39 14 -9 25 -52 39 -90 29 -21 -6 -22 -4 -16 21
5 22 2 28 -21 38 -16 7 -32 18 -36 25 -18 29 -62 -2 -50 -34 3 -9 -8 -13 -36
-13 -39 0 -40 -1 -29 -20 7 -11 20 -20 28 -20 8 -1 26 -7 40 -14 28 -16 60 -5
60 19 0 20 16 19 24 -1 12 -31 -20 -51 -77 -49 -35 1 -51 5 -49 14 2 9 -8 10
-34 5 l-37 -7 7 41 c6 38 4 43 -21 55 -32 16 -54 12 -46 -9 3 -8 0 -14 -6 -14
-6 0 -11 5 -11 11 0 5 -5 7 -10 4 -6 -4 -25 -8 -43 -10 -18 -1 -58 -6 -89 -10
-45 -6 -58 -4 -58 6 0 7 -12 23 -27 35 l-26 21 52 6 c28 3 58 13 67 22 8 8 20
15 25 15 5 0 9 7 9 15 0 8 -4 15 -10 15 -5 0 -10 -4 -10 -10 0 -14 -57 -12
-111 4 -38 12 -49 12 -70 0 -13 -7 -39 -13 -56 -14 -26 0 -33 4 -33 20 0 11 6
20 14 20 7 0 19 7 26 15 8 10 30 15 62 15 44 0 49 2 38 15 -7 9 -21 13 -30 10
-9 -3 -23 2 -30 10 -11 13 -26 15 -74 10 -34 -3 -94 -2 -133 3 -46 5 -76 5
-83 -2 -5 -5 -26 -11 -46 -13 -20 -2 -43 -10 -51 -18 -8 -8 -23 -15 -34 -15
-11 0 -27 -6 -35 -14 -23 -23 -118 -55 -186 -62 -35 -3 -71 -11 -81 -16 -10
-5 -40 -16 -65 -23 -30 -9 -51 -22 -57 -36 -6 -13 -31 -29 -62 -41 -50 -18
-69 -37 -40 -39 27 -3 33 -4 50 -15 18 -10 17 -13 -7 -49 -34 -49 -33 -54 7
-46 34 8 70 1 67 -13 -1 -5 4 -12 11 -16 6 -5 9 -15 6 -24 -5 -13 -11 -15 -26
-6 -27 14 -50 13 -67 -5 -9 -8 -34 -15 -57 -15 -23 0 -59 -3 -79 -6 -33 -6
-37 -9 -32 -29 7 -27 -4 -36 -34 -28 -25 6 -29 31 -8 39 11 4 12 11 5 28 -14
29 -91 48 -148 35 -23 -5 -47 -7 -52 -3 -10 6 -79 -33 -79 -46 0 -15 -39 -18
-59 -3 -26 17 -28 35 -3 26 16 -7 16 -6 -1 11 -21 21 -66 14 -93 -15 -9 -10
-23 -19 -31 -19 -21 0 -15 -20 10 -30 13 -5 16 -9 7 -10 -11 0 -10 -4 5 -16
14 -10 31 -13 56 -9 22 4 40 2 44 -4 9 -15 -35 -30 -68 -24 -22 4 -27 2 -27
-15 0 -11 7 -23 16 -26 18 -7 63 2 81 16 7 6 26 5 50 -1 26 -7 51 -7 72 -1 21
6 40 6 50 0 9 -5 11 -10 5 -10 -6 0 -22 -10 -35 -21 l-24 -22 28 5 c15 3 30 1
33 -3 3 -5 0 -9 -6 -9 -6 0 -3 -9 7 -19 14 -14 31 -19 70 -18 87 1 84 -32 -4
-40 -26 -2 -57 -8 -68 -13 -59 -24 -85 -31 -94 -26 -5 4 -20 2 -33 -3 -69 -27
-105 -33 -127 -22 -11 7 -21 8 -21 2 0 -13 -79 -40 -130 -43 -8 0 -22 -7 -31
-15 -14 -11 -24 -12 -63 -1 -37 10 -50 10 -64 0 -9 -7 -25 -15 -34 -18 -10 -4
-18 -16 -18 -29 0 -30 -38 -45 -55 -21 -18 24 -101 22 -115 -3 -21 -41 -37
-49 -85 -44 -35 5 -45 2 -45 -9 0 -8 -8 -22 -18 -31 -21 -19 -62 -23 -62 -6 0
13 -39 2 -61 -17 -9 -8 -23 -12 -32 -9 -8 4 -18 2 -22 -4 -3 -6 -27 -11 -52
-11 -45 0 -113 -25 -113 -41 0 -5 -7 -9 -15 -9 -8 0 -23 -4 -33 -9 -9 -5 -24
-12 -33 -14 -26 -8 -31 -45 -8 -58 23 -12 52 -5 75 18 11 12 18 13 27 4 6 -6
23 -11 38 -11 15 0 30 -4 33 -9 8 -12 45 -2 73 19 30 23 15 44 -26 35 -26 -6
-31 -4 -31 13 0 24 16 37 54 46 26 6 28 5 16 -9 -11 -14 -9 -15 18 -13 16 1
38 -4 48 -12 12 -11 40 -15 101 -13 79 1 84 0 70 -15 -18 -19 -6 -52 18 -52 8
0 15 -3 15 -8 0 -16 -32 -52 -46 -52 -8 0 -12 -5 -9 -10 3 -6 -1 -13 -10 -17
-10 -3 -20 0 -24 6 -5 7 -18 10 -33 6 -14 -4 -69 -8 -124 -10 -54 -2 -110 -6
-124 -8 -14 -3 -33 -5 -42 -6 -10 0 -18 -8 -18 -16 0 -26 -51 -31 -100 -11 -9
4 -29 -4 -48 -20 -33 -28 -42 -47 -17 -38 8 3 19 3 25 -1 20 -13 -11 -35 -49
-35 -20 0 -43 -5 -51 -10 -13 -9 -13 -12 3 -21 46 -27 -3 -60 -53 -36 -18 10
-32 12 -36 6 -9 -15 14 -36 47 -43 25 -5 30 -10 26 -25 -8 -33 5 -40 50 -28
45 12 74 0 72 -32 0 -10 -2 -11 -6 -3 -7 17 -32 15 -39 -3 -8 -20 -51 -19 -62
2 -10 18 -13 17 -134 -29 -32 -12 -35 -33 -11 -62 17 -19 17 -20 1 -7 -11 8
-25 10 -35 6 -29 -12 -65 -15 -82 -5 -9 4 -41 5 -71 1 -48 -6 -55 -9 -53 -28
2 -20 -3 -22 -87 -29 -85 -6 -117 -19 -68 -26 16 -2 22 -9 21 -23 -1 -11 4
-23 10 -27 7 -4 13 -20 14 -35 6 -83 23 -109 50 -82 6 6 37 13 69 15 33 3 65
11 75 20 10 9 19 11 23 5 7 -11 -43 -53 -55 -45 -5 3 -9 1 -9 -4 0 -6 7 -13
16 -16 24 -9 6 -26 -27 -26 -19 0 -40 -10 -57 -27 -15 -15 -34 -26 -44 -25 -9
2 -19 -1 -22 -6 -6 -10 16 -29 72 -63 28 -16 33 -24 28 -44 -8 -30 8 -73 40
-106 16 -17 22 -29 15 -33 -7 -5 -7 -13 1 -26 7 -11 9 -23 5 -27 -7 -6 -20 6
-29 28 -2 4 -13 10 -25 13 -17 6 -23 3 -23 -8 0 -9 -7 -16 -16 -16 -11 0 -14
8 -12 33 3 28 0 32 -20 29 -12 -2 -22 2 -22 7 0 6 8 11 18 11 34 0 43 15 36
58 -4 26 -12 42 -21 42 -7 0 -17 8 -20 18 -4 9 -15 23 -25 30 -10 7 -18 20
-18 28 0 8 -9 14 -19 14 -11 0 -26 3 -34 6 -10 3 -31 -8 -54 -30 -37 -34 -38
-35 -18 -50 19 -14 19 -15 2 -22 -10 -3 -23 -2 -30 5 -6 6 -19 11 -29 11 -10
0 -18 7 -18 15 0 8 9 15 19 15 36 0 31 27 -9 54 -42 28 -76 29 -94 4 -6 -9
-20 -17 -30 -19 -25 -5 -45 -37 -29 -47 6 -4 15 -20 18 -35 8 -31 21 -42 49
-42 11 0 21 -6 24 -14 3 -10 -1 -12 -17 -8 -11 3 -24 1 -27 -4 -9 -15 -41 -10
-48 8 -5 12 -9 14 -18 5 -7 -7 -23 -12 -38 -11 -14 0 -19 3 -12 6 6 2 12 11
12 19 0 15 -18 18 -36 6 -12 -8 -12 -81 0 -100 5 -9 1 -22 -11 -35 -11 -12
-23 -30 -26 -39 -4 -11 -13 -15 -27 -11 -18 5 -20 2 -16 -18 3 -13 7 -39 10
-57 4 -32 4 -33 -14 -17 -10 9 -20 31 -22 49 l-4 31 -11 -25 c-6 -14 -7 -29
-3 -35 4 -5 10 -20 13 -33 4 -18 0 -25 -21 -33 l-27 -11 29 -25 c28 -24 30
-24 43 -7 7 10 13 26 13 37 0 25 21 17 40 -16 26 -46 138 -160 152 -155 10 4
13 -4 12 -27 -2 -41 -11 -56 -28 -49 -8 3 -13 0 -13 -8 1 -7 -1 -13 -5 -13
-16 0 -36 -41 -31 -63 6 -25 -26 -109 -36 -94 -13 20 -52 34 -65 23 -8 -6 -21
-9 -30 -5 -20 8 -21 -5 -1 -20 14 -10 14 -17 1 -59 -8 -26 -10 -47 -5 -47 5 0
9 -9 9 -20 0 -11 -5 -20 -11 -20 -20 0 -49 21 -49 35 0 18 -20 31 -29 17 -3
-6 -19 -8 -34 -5 -38 7 -33 39 6 36 35 -2 34 8 -3 36 -34 25 -50 21 -50 -14 0
-13 -5 -27 -10 -30 -8 -5 -7 -11 0 -20 14 -17 3 -38 -16 -31 -7 3 -16 1 -19
-4 -4 -6 -10 -10 -16 -10 -12 0 -12 53 0 66 16 16 15 48 -2 88 -9 21 -17 47
-17 57 0 11 -4 19 -10 19 -5 0 -10 -6 -10 -14 0 -8 -7 -21 -15 -30 -20 -19
-31 -240 -12 -233 7 2 13 13 15 25 2 12 8 22 13 22 16 0 23 -32 11 -51 -7 -10
-12 -28 -12 -39 0 -20 6 -20 379 -20 366 0 379 1 374 19 -3 14 3 21 28 30 42
15 40 15 77 -19 l33 -30 370 0 c207 0 369 4 369 9 0 10 42 23 49 15 3 -3 -1
-9 -9 -14 -10 -7 9 -10 58 -10 72 0 73 0 78 29 4 20 11 28 20 24 9 -3 12 -13
8 -29 -5 -19 -2 -24 14 -24 15 0 19 5 15 19 -3 10 0 22 6 25 6 4 11 18 11 32
0 31 13 31 34 -1 21 -32 20 -62 -2 -68 -9 -3 15 -5 55 -6 63 -1 75 2 97 23 31
28 34 50 6 41 -11 -3 -20 -2 -20 4 0 12 45 48 71 56 12 4 19 15 19 31 0 17 5
24 20 24 14 0 20 7 20 23 0 25 -3 24 83 18 4 -1 7 -9 7 -19 0 -10 5 -23 12
-30 17 -17 73 -15 88 3 14 17 47 19 69 6 13 -8 12 -24 -4 -63 -5 -12 -1 -17
16 -20 26 -4 38 -28 14 -28 -29 0 -13 -35 18 -38 20 -2 27 -8 23 -18 -4 -11 4
-14 37 -14 24 0 48 5 54 11 8 8 13 8 17 0 10 -15 342 -15 351 0 4 6 14 8 22 5
17 -7 97 69 88 84 -3 6 -17 10 -30 10 -12 0 -25 7 -29 15 -3 8 -12 15 -21 15
-28 0 -14 30 23 49 37 20 22 86 -20 80 -25 -3 -38 1 -38 12 0 7 -8 18 -18 25
-15 12 -14 14 13 15 52 4 65 0 93 -26 15 -14 35 -25 44 -25 10 0 18 -4 18 -9
0 -21 37 -15 68 11 25 21 39 26 61 22 25 -5 32 -2 46 25 9 18 20 29 25 26 14
-9 45 11 64 40 14 21 15 29 5 41 -6 8 -8 14 -3 13 5 0 20 -14 33 -30 21 -27
22 -31 7 -42 -23 -17 -11 -97 19 -130 18 -18 21 -27 12 -36 -15 -15 0 -29 49
-46 22 -8 38 -18 37 -23 -1 -6 21 -8 57 -5 55 5 60 4 60 -14 0 -15 8 -22 28
-25 15 -3 34 -8 42 -12 10 -4 19 1 25 16 12 28 57 54 76 45 8 -4 33 -18 56
-31 49 -28 60 -21 70 38 3 23 11 36 20 36 13 0 13 4 -1 25 -15 23 -15 26 0 32
9 3 19 1 23 -4 3 -6 17 -14 29 -18 21 -6 23 -5 14 12 -14 27 -4 43 29 43 16 0
38 5 49 10 11 6 29 15 40 20 11 6 35 10 53 10 18 0 42 7 53 15 39 30 75 12 56
-28 -6 -12 -13 -30 -16 -39 -3 -10 -15 -18 -26 -18 -15 0 -20 -7 -20 -24 0
-59 25 -74 41 -26 13 36 26 38 39 6 13 -36 31 -43 48 -18 12 18 17 19 45 10
18 -6 40 -18 50 -26 15 -13 23 -14 50 -4 27 10 34 10 44 -4 10 -13 7 -20 -17
-40 -33 -28 -38 -29 -61 -8 -10 9 -23 13 -28 9 -18 -11 -12 -25 15 -35 14 -6
23 -14 19 -19 -3 -5 0 -21 6 -35 l12 -26 159 0 c131 0 158 2 158 14 0 8 5 18
12 22 8 5 9 0 6 -14 -6 -21 -2 -22 47 -22 38 0 55 4 59 15 7 20 33 19 46 -2 9
-17 11 -17 21 0 5 9 15 15 20 12 5 -4 7 -11 4 -16 -4 -5 54 -9 144 -9 140 0
152 1 163 20 7 11 18 20 25 20 16 0 17 -12 1 -28 -9 -9 186 -12 880 -12 786 0
892 2 892 15 0 8 7 15 15 15 8 0 15 -7 15 -15 0 -13 117 -15 990 -15 880 0
990 2 990 15 0 9 -12 20 -26 25 -31 12 -63 48 -64 72 0 12 8 16 29 16 43 -1
51 9 51 61 0 82 -14 107 -68 121 -77 20 -75 19 -64 33 6 7 8 24 5 37 -4 15 -1
27 10 35 15 11 15 14 -6 32 -12 11 -35 23 -50 27 -21 5 -27 11 -23 23 4 9 -2
25 -12 37 -11 12 -22 33 -26 49 -3 15 -12 27 -20 27 -7 0 -19 7 -26 15 -7 8
-20 15 -30 15 -20 0 -35 15 -44 45 -5 19 -3 21 29 17 33 -4 36 -2 41 28 10 46
30 48 69 7 22 -22 41 -34 50 -31 11 5 15 -2 15 -25 0 -24 4 -31 20 -31 11 0
20 -6 20 -14 0 -7 10 -20 22 -28 11 -8 22 -25 24 -39 1 -13 3 -25 3 -27 1 -1
11 7 24 18 l22 21 3 -23 c2 -13 13 -30 24 -39 16 -13 22 -30 24 -74 3 -65 5
-69 33 -60 18 5 21 14 21 60 0 30 5 57 11 61 6 3 9 15 6 25 -7 25 9 24 23 -1
6 -11 16 -20 23 -20 7 0 23 -13 35 -30 23 -30 29 -60 13 -60 -21 0 -41 13 -41
26 0 8 -6 14 -14 14 -8 0 -16 -15 -19 -37 -10 -70 -14 -88 -26 -111 -12 -23
-31 -21 -31 4 0 15 -12 19 -23 8 -9 -9 12 -46 34 -62 10 -6 23 -28 29 -47 13
-39 48 -65 60 -45 10 16 40 9 53 -12 8 -12 7 -24 -3 -42 -10 -20 -11 -31 -2
-51 17 -36 15 -53 -5 -58 -10 -3 42 -5 116 -6 l133 -1 -16 25 c-9 13 -16 29
-16 35 0 20 24 5 40 -26 12 -22 25 -30 51 -32 27 -3 32 -1 22 9 -7 7 -13 23
-13 35 0 12 -7 28 -17 35 -15 13 -16 11 -10 -16 l7 -30 -25 30 c-30 36 -41 81
-25 100 14 16 35 21 25 6 -7 -13 15 -25 25 -15 12 12 -27 74 -46 74 -10 0 -12
8 -7 30 3 17 1 30 -4 30 -13 0 -35 49 -27 61 7 13 -24 49 -43 49 -7 0 -13 7
-13 15 0 9 -9 15 -25 15 -27 0 -60 23 -77 53 -9 17 -7 18 24 12 33 -7 33 -7
14 13 -12 15 -16 29 -12 46 3 14 2 27 -3 30 -5 3 -11 -3 -14 -14 -6 -24 -54
-21 -73 5 -13 18 -14 18 -35 -1 -21 -19 -21 -19 -39 4 -20 24 -16 62 6 62 8 0
14 5 14 10 0 16 26 12 41 -7 12 -14 15 -11 19 28 7 53 3 69 -17 69 -11 0 -14
-7 -11 -25 6 -26 -6 -43 -17 -25 -10 17 -32 11 -38 -10 -7 -28 -20 -25 -40 9
-21 36 -21 45 -2 37 18 -7 18 -5 1 36 -20 47 -38 135 -40 190 0 25 -4 44 -7
42 -4 -2 -12 2 -18 10 -6 7 -22 11 -35 9 -28 -6 -33 5 -41 87 -8 77 -14 91
-46 123 -16 15 -29 32 -29 37 0 6 -7 10 -15 10 -9 0 -19 8 -22 17 -11 30 -47
63 -69 63 -11 0 -29 9 -40 21 -10 11 -32 27 -49 35 -62 30 -84 45 -123 84 -22
22 -45 40 -51 40 -12 0 -12 1 -16 38 -1 12 -5 26 -9 29 -11 11 -66 12 -66 1 0
-6 -7 -7 -16 -4 -10 4 -22 -1 -30 -11 -11 -15 -16 -16 -33 -5 -25 14 -31 15
-31 3 0 -5 8 -12 19 -16 24 -7 71 -51 71 -65 0 -8 -11 -9 -30 -5 -27 6 -30 4
-30 -19 0 -16 -6 -26 -15 -26 -9 0 -15 -10 -15 -26 l0 -26 -28 24 c-26 21 -27
24 -10 30 39 16 30 60 -12 57 -29 -2 -37 1 -59 31 l-22 30 54 -6 c45 -5 55 -4
60 11 9 21 -41 71 -106 105 -38 20 -49 22 -56 11 -6 -9 -11 -10 -15 -2 -4 6
-12 11 -18 11 -15 0 0 -72 18 -86 23 -18 16 -23 -14 -9 -45 23 -93 78 -82 95
8 13 12 12 25 -7 19 -27 37 -30 28 -5 -13 38 -35 52 -82 52 -34 0 -51 5 -64
20 -10 13 -29 20 -49 20 l-33 -1 30 -24 c16 -13 26 -27 22 -31 -3 -4 -22 7
-41 24 -19 16 -32 32 -29 35 8 9 -28 57 -43 57 -8 0 -14 9 -14 20 0 14 7 20
23 20 13 0 28 5 34 11 8 8 17 7 31 -2 26 -16 43 -2 19 15 -9 7 -17 21 -17 30
0 23 -24 30 -50 16 -19 -10 -27 -9 -49 7 -14 11 -41 27 -58 37 -35 17 -44 36
-18 36 22 0 19 12 -14 56 -34 48 -74 76 -96 68 -9 -4 -23 0 -33 8 -9 8 -25 18
-36 22 -13 4 -17 12 -12 30 3 14 2 27 -3 30 -14 9 -46 -7 -46 -23 0 -10 -21
-20 -58 -30 l-58 -15 -32 37 c-18 20 -44 41 -59 46 -19 7 -25 15 -22 29 7 23
-20 46 -42 38 -16 -6 -16 -8 0 -24 9 -10 16 -22 16 -25 0 -15 -19 -5 -54 27
-26 23 -44 32 -58 28 -15 -4 -19 -1 -16 9 3 8 15 13 26 12 28 -3 37 28 18 65
-17 33 -7 62 14 38 7 -9 16 -14 20 -11 4 2 19 -11 35 -30 15 -19 35 -35 46
-35 10 0 21 -5 24 -10 4 -6 15 -8 26 -5 19 6 27 -9 9 -20 -5 -3 -6 -13 -3 -23
9 -25 45 -62 54 -56 13 8 11 44 -2 44 -7 0 -9 11 -5 30 4 23 2 30 -10 30 -10
0 -13 6 -10 18 4 12 -3 27 -19 42 -14 13 -25 29 -25 37 0 22 -18 14 -22 -9 -4
-27 -48 -39 -48 -14 0 8 5 18 10 21 8 5 7 11 -1 21 -9 11 -8 15 5 20 9 4 16
18 16 34 0 41 14 44 48 10 30 -30 62 -40 62 -19 0 5 -5 7 -10 4 -6 -4 -20 5
-30 18 -25 31 -142 75 -125 47 4 -6 -7 -10 -24 -10 -18 0 -40 -9 -51 -20 -11
-11 -24 -20 -29 -20 -17 0 -62 43 -57 55 6 16 -15 25 -54 25 -15 0 -34 7 -41
16 -10 12 -24 15 -53 11 -22 -3 -49 0 -60 6 -28 15 -88 37 -103 37 -7 0 -13
-7 -13 -15 0 -8 -6 -15 -12 -16 -7 -1 -22 -2 -33 -3 -12 0 -19 -8 -19 -18 1
-10 -2 -18 -7 -18 -5 0 -9 4 -9 9 0 5 -7 16 -15 25 -13 13 -14 19 -3 36 11 17
11 22 -2 30 -22 14 -71 12 -67 -2 4 -20 -32 -21 -71 -2 -20 10 -50 20 -66 23
-31 7 -48 31 -22 31 9 0 16 4 16 8 0 14 -23 32 -41 32 -23 0 -34 19 -20 33 6
6 11 19 11 29 0 13 8 18 28 18 15 0 33 -5 39 -11 13 -13 69 -8 66 6 -1 6 -11
11 -23 13 -12 2 -22 13 -26 30 -10 48 -13 52 -49 67 -19 8 -50 21 -69 29 -24
11 -37 11 -45 3 -8 -8 -16 -5 -31 8 -14 13 -38 19 -73 20 -53 2 -112 20 -140
44 -13 10 -25 10 -65 -2 -60 -17 -97 -7 -87 24 7 20 5 21 -59 14 -47 -5 -66
-4 -66 4 0 6 7 14 15 17 19 8 9 24 -15 24 -10 0 -23 7 -27 15 -11 19 -251 27
-286 9 -18 -10 -25 -10 -39 2 -9 9 -18 11 -22 6z m304 -92 c0 -5 -13 -10 -30
-10 -16 0 -30 5 -30 10 0 6 14 10 30 10 17 0 30 -4 30 -10z m46 -38 c-9 -9
-37 8 -31 18 5 8 11 7 21 -1 8 -6 12 -14 10 -17z m-203 -59 c-2 -7 11 -22 28
-34 21 -15 27 -25 20 -32 -7 -7 -16 -3 -30 14 -14 17 -23 21 -31 13 -6 -6 -24
-9 -40 -6 -58 8 -24 66 35 59 11 -1 19 -8 18 -14z m242 -90 c11 -14 18 -15 48
-6 33 10 35 9 25 -7 -6 -9 -24 -17 -41 -18 -16 0 -31 -3 -34 -5 -4 -5 -53 40
-53 48 0 13 44 3 55 -12z m-1534 -18 c0 -5 -10 -13 -23 -17 -22 -6 -22 -6 4
-7 40 -1 41 -16 2 -30 -18 -7 -39 -21 -44 -32 -6 -10 -16 -19 -22 -19 -7 0 -7
5 1 14 10 12 7 15 -15 18 -33 4 -45 28 -15 28 12 0 25 8 28 18 4 9 14 23 22
29 18 15 61 13 62 -2z m-96 -5 c3 -6 -4 -10 -17 -10 -18 0 -20 2 -8 10 19 12
18 12 25 0z m-55 -25 c-7 -8 -24 -15 -37 -15 -22 0 -24 2 -13 15 7 8 24 15 37
15 22 0 24 -2 13 -15z m1606 -30 c18 -14 17 -14 -13 -15 -23 0 -33 5 -33 15 0
19 21 19 46 0z m214 1 c31 -7 65 -19 75 -25 11 -6 43 -20 70 -30 31 -12 50
-25 50 -35 0 -8 6 -21 13 -28 6 -6 12 -15 12 -19 0 -14 -51 -16 -76 -2 -15 7
-35 11 -46 7 -10 -3 -33 3 -51 14 -17 10 -40 17 -50 15 -9 -3 -38 5 -63 17
-41 21 -45 25 -39 51 7 30 0 34 -47 30 -10 -1 -18 3 -18 8 0 15 103 13 170 -3z
m-2303 -31 c6 -14 7 -25 3 -25 -5 0 -10 6 -13 13 -3 9 -12 7 -36 -6 -18 -10
-31 -14 -31 -7 0 6 11 15 25 20 14 5 25 14 25 20 0 18 15 10 27 -15z m965 5
c-2 -7 2 -16 9 -20 8 -6 8 -9 0 -14 -6 -4 -11 -2 -11 4 0 7 -11 5 -29 -4 -27
-14 -29 -14 -34 4 -3 13 2 25 16 35 25 18 53 15 49 -5z m-862 3 c0 -3 -8 -15
-17 -26 -17 -18 -17 -19 0 -32 16 -11 16 -13 1 -19 -23 -9 -54 -7 -54 3 0 5 7
14 15 21 8 7 15 20 15 30 0 9 3 20 7 23 8 9 33 9 33 0z m988 -10 c-3 -19 -48
-32 -48 -14 0 10 28 30 43 31 5 0 7 -8 5 -17z m-766 -2 c3 -1 13 -15 22 -31
10 -22 11 -30 3 -29 -30 4 -47 -2 -47 -17 0 -13 -3 -14 -15 -4 -8 7 -24 10
-35 7 -11 -3 -20 -3 -20 -1 0 7 37 41 51 48 8 3 1 4 -16 0 -16 -3 -39 -14 -51
-25 -22 -20 -54 -26 -54 -9 0 6 5 10 10 10 6 0 24 13 41 29 25 24 38 29 67 26
21 -2 40 -4 44 -4z m158 -11 c0 -5 -7 -10 -15 -10 -8 0 -15 5 -15 10 0 6 7 10
15 10 8 0 15 -4 15 -10z m-850 -31 c9 -15 8 -24 -1 -36 -11 -12 -9 -18 11 -34
14 -10 33 -19 43 -19 9 0 17 -4 17 -10 0 -5 -17 -10 -38 -10 -26 0 -41 -6 -49
-20 -11 -16 -10 -21 6 -30 11 -5 30 -10 43 -10 13 0 30 -5 38 -10 13 -9 13
-11 0 -20 -37 -24 -130 10 -130 47 0 9 -8 11 -25 7 -14 -3 -25 -2 -25 3 0 16
25 63 33 63 8 0 34 24 56 53 11 14 11 20 1 32 -8 10 -9 15 -2 15 6 0 16 -9 22
-21z m2167 9 c6 -7 13 -21 16 -31 6 -15 3 -17 -16 -11 -34 11 -53 54 -23 54 7
0 18 -6 23 -12z m-1897 -43 c0 -10 -11 -15 -35 -15 -54 0 -43 27 13 29 13 1
22 -5 22 -14z m95 5 c-3 -5 -12 -10 -18 -10 -7 0 -6 4 3 10 19 12 23 12 15 0z
m2170 -21 c10 -15 -1 -23 -20 -15 -9 3 -13 10 -10 16 8 13 22 13 30 -1z
m-2973 -17 c-15 -12 -21 -24 -16 -35 6 -17 -15 -25 -29 -11 -9 10 35 63 53 63
10 0 8 -5 -8 -17z m-345 -19 c-9 -9 -19 -14 -23 -11 -10 10 6 28 24 28 15 0
15 -1 -1 -17z m1190 -13 c-7 -28 52 -90 87 -91 14 0 39 -1 55 -2 15 0 42 5 60
13 36 14 55 5 28 -14 -21 -16 -22 -26 -2 -26 20 0 19 -39 -2 -62 -16 -18 -16
-20 4 -40 19 -18 25 -19 54 -9 34 12 56 7 23 -6 -27 -10 -64 -51 -64 -72 0
-16 -10 -18 -113 -15 -73 1 -122 7 -135 15 -18 11 -24 11 -39 -2 -10 -9 -26
-19 -35 -22 -10 -4 -18 -13 -18 -21 0 -38 -72 -42 -105 -6 -21 23 -5 60 25 60
11 0 20 7 20 15 0 8 -9 15 -19 15 -11 0 -26 8 -33 18 -7 10 -31 25 -53 34 -68
27 -56 38 39 35 47 -2 86 1 86 6 0 15 -44 46 -66 47 -11 0 -29 9 -39 20 -18
20 -17 20 33 20 28 0 54 5 57 10 3 6 14 10 24 10 10 0 24 6 30 14 9 11 6 12
-15 8 -39 -7 -23 11 28 32 24 10 50 22 58 26 25 14 33 11 27 -10z m-942 0 c-3
-5 -22 -12 -43 -16 -20 -4 -46 -13 -57 -20 -24 -17 -78 -19 -73 -2 4 11 21 18
93 38 43 11 87 12 80 0z m400 -24 c-18 -27 -76 -39 -112 -23 -16 7 -31 7 -50
-3 l-28 -12 23 -9 c32 -12 25 -43 -11 -47 -23 -3 -27 0 -27 22 0 16 -6 26 -15
26 -9 0 -15 9 -15 21 0 17 4 20 24 15 15 -4 28 0 36 9 16 19 64 19 80 0 17
-21 48 -19 62 5 7 11 21 20 31 20 16 0 16 -2 2 -24z m752 -19 c-13 -20 -24
-24 -56 -23 -51 1 -53 12 -3 26 20 5 44 14 52 19 22 15 25 5 7 -22z m1933 19
c0 -2 -7 -6 -15 -10 -8 -3 -15 -1 -15 4 0 6 7 10 15 10 8 0 15 -2 15 -4z m954
-13 c4 -4 17 -8 28 -8 12 0 23 -6 25 -12 3 -7 -2 -13 -11 -13 -9 0 -16 -4 -16
-10 0 -5 -5 -10 -12 -10 -14 0 -58 40 -58 52 0 10 34 11 44 1z m-3556 -59 c25
-7 30 -24 6 -24 -23 0 -144 -44 -144 -52 0 -5 16 -8 35 -8 45 0 45 -15 0 -41
-39 -24 -65 -59 -42 -59 7 0 18 5 24 11 8 8 16 6 29 -5 11 -8 29 -23 42 -33
15 -12 21 -24 17 -34 -5 -14 -11 -15 -35 -6 -24 9 -32 8 -48 -6 -11 -10 -35
-17 -58 -17 -32 1 -36 3 -24 13 21 18 43 58 35 65 -4 4 -12 -1 -19 -11 -14
-19 -36 -23 -36 -7 0 6 5 10 10 10 19 0 10 21 -15 32 -18 8 -28 8 -39 -1 -12
-10 -19 -10 -36 2 -20 14 -20 14 5 25 14 6 25 17 25 23 0 7 11 8 31 4 34 -8
67 17 62 45 -5 25 9 36 72 57 71 24 74 24 103 17z m2527 -24 c3 -5 1 -10 -4
-10 -6 0 -11 5 -11 10 0 6 2 10 4 10 3 0 8 -4 11 -10z m-2931 -29 c3 -5 -8
-11 -24 -13 -29 -4 -37 1 -23 15 9 10 41 9 47 -2z m4116 -12 c0 -6 -4 -7 -10
-4 -5 3 -10 11 -10 16 0 6 5 7 10 4 6 -3 10 -11 10 -16z m-3685 -22 c12 -3 4
-5 -17 -6 -36 -1 -47 7 -31 22 3 4 11 3 17 -2 6 -5 20 -11 31 -14z m801 -62
c16 -12 16 -14 3 -15 -9 0 -22 7 -29 15 -16 19 0 19 26 0z m-1636 -90 c-7 -9
-15 -13 -17 -11 -6 6 20 36 26 30 2 -2 -2 -10 -9 -19z m3918 -3 c2 -7 -3 -12
-12 -12 -9 0 -16 7 -16 16 0 17 22 14 28 -4z m-3352 -52 c13 0 14 -3 5 -14
-14 -16 -50 -10 -58 11 -3 7 1 20 8 29 12 14 14 14 21 -5 4 -12 15 -21 24 -21z
m-92 14 c27 -10 18 -33 -20 -49 -19 -8 -33 -19 -29 -25 8 -13 38 -13 52 1 6 6
19 9 29 6 15 -4 12 -7 -14 -18 -18 -7 -30 -19 -28 -26 8 -21 -37 -39 -104 -42
-36 -1 -70 -7 -77 -13 -8 -6 -27 -7 -57 0 -42 9 -45 8 -70 -20 -14 -17 -23
-35 -20 -40 4 -6 -10 -25 -31 -43 -27 -25 -35 -39 -31 -53 5 -14 1 -21 -15
-25 -26 -7 -79 2 -96 15 -15 12 -34 1 -27 -16 3 -7 -2 -19 -11 -26 -19 -16
-19 -40 0 -40 9 0 18 -7 21 -15 5 -11 10 -13 19 -5 8 7 16 7 19 2 11 -19 -21
-31 -72 -27 -29 2 -52 1 -52 -3 0 -12 -70 -55 -77 -48 -4 3 3 13 15 22 27 19
29 38 3 29 -12 -3 -21 0 -25 10 -3 9 -14 15 -24 13 -10 -1 -31 5 -46 15 -22
15 -25 21 -15 33 17 21 -19 19 -43 -3 -14 -13 -21 -14 -30 -5 -21 21 -37 13
-59 -29 -17 -34 -24 -40 -42 -35 -12 3 -28 6 -34 6 -7 0 -13 5 -13 11 0 6 -10
24 -21 41 -18 25 -19 32 -8 39 19 12 26 11 34 -2 5 -7 16 -2 31 12 14 13 24
17 24 10 0 -8 11 -11 28 -9 19 2 26 8 24 21 -2 9 2 17 8 17 5 0 10 -4 10 -10
0 -16 18 -12 48 10 15 10 49 24 77 30 51 11 95 42 95 67 0 8 8 16 18 20 9 3
28 17 42 30 76 73 92 83 123 83 18 0 38 -5 44 -11 8 -8 14 -5 23 11 l11 21 26
-25 c25 -25 25 -27 8 -46 -22 -24 -14 -25 27 -4 22 11 33 13 41 5 23 -23 98
-6 83 18 -9 13 34 31 74 31 16 0 32 5 35 10 4 6 -6 10 -24 10 -37 0 -81 16
-81 30 0 13 47 13 52 0 2 -5 26 1 53 15 52 25 72 29 99 19z m276 -7 c0 -14
-20 -37 -32 -37 -4 0 -8 11 -8 25 0 18 5 25 20 25 11 0 20 -6 20 -13z m1607
-17 c-3 -10 2 -25 10 -31 8 -7 13 -26 12 -43 -4 -41 10 -88 30 -103 14 -11 13
-14 -8 -29 -20 -14 -21 -18 -8 -25 16 -9 64 11 77 32 8 13 40 6 40 -9 0 -5
-11 -14 -25 -20 -29 -13 -32 -30 -7 -39 35 -13 42 -23 30 -49 -9 -19 -9 -27 0
-33 18 -11 4 -71 -17 -72 -22 -2 -23 -2 -43 6 -14 5 -18 2 -18 -14 0 -34 -23
-23 -52 25 -34 55 -34 59 -6 78 l21 15 -27 11 c-40 15 -53 13 -59 -10 -5 -18
-7 -19 -36 -4 -46 23 -45 29 9 44 51 14 61 24 35 34 -8 3 -15 13 -15 21 0 13
-8 15 -44 10 l-44 -7 2 34 c1 26 6 34 24 36 25 4 29 17 7 26 -8 3 -15 1 -15
-4 0 -6 -7 -10 -15 -10 -8 0 -15 -6 -15 -13 0 -8 -13 -13 -32 -12 -26 0 -34 5
-36 23 -2 14 -10 22 -22 22 -35 0 -31 19 5 26 19 3 38 10 41 15 3 5 17 9 31 9
33 0 103 21 103 31 0 6 59 48 69 49 2 0 1 -9 -2 -20z m1643 10 c0 -5 -2 -10
-4 -10 -3 0 -8 5 -11 10 -3 6 -1 10 4 10 6 0 11 -4 11 -10z m-3928 -52 c-9 -9
-15 -9 -24 0 -10 10 -10 15 2 22 20 12 38 -6 22 -22z m189 -19 c-25 -21 -52
-22 -58 -2 -4 12 17 20 57 22 l25 0 -24 -20z m1032 -53 c4 -10 -6 -13 -34 -13
-43 0 -51 13 -16 26 25 10 43 5 50 -13z m2260 9 c1 -6 -11 -11 -28 -13 -29 -2
-29 -2 -10 13 20 16 35 16 38 0z m1411 -29 c27 10 46 -12 33 -40 -14 -30 -50
-23 -77 14 -27 39 -26 54 4 35 13 -8 31 -13 40 -9z m-3083 3 c11 -5 17 -14 14
-20 -7 -11 -45 7 -45 21 0 13 7 13 31 -1z m3279 -49 c0 -8 11 -33 24 -54 26
-44 24 -76 -6 -76 -17 0 -18 2 -8 15 7 9 11 16 9 18 -50 28 -52 29 -60 15 -5
-7 -6 -21 -3 -30 3 -10 1 -18 -5 -18 -6 0 -11 9 -11 20 0 11 -4 20 -10 20 -18
0 -11 25 15 53 21 22 24 31 15 46 -5 11 -10 27 -10 36 0 14 4 13 25 -6 13 -13
25 -31 25 -39z m-4733 17 c0 -7 4 -20 8 -30 7 -16 1 -15 -44 7 -28 15 -51 28
-51 30 0 2 20 4 43 4 28 1 44 -3 44 -11z m2148 -7 c3 -5 -1 -10 -10 -10 -9 0
-13 5 -10 10 3 6 8 10 10 10 2 0 7 -4 10 -10z m-620 -10 c-3 -5 2 -10 13 -10
29 0 34 -11 15 -33 -17 -20 -17 -20 0 -14 14 5 18 3 15 -11 -4 -24 -56 -29
-65 -6 -3 9 0 26 7 37 9 15 10 22 1 25 -13 4 -5 22 10 22 6 0 7 -4 4 -10z
m201 -14 c26 -20 10 -32 -53 -40 -63 -8 -73 11 -20 38 40 19 48 20 73 2z
m2714 -16 c0 -5 -4 -10 -10 -10 -5 0 -10 5 -10 10 0 6 5 10 10 10 6 0 10 -4
10 -10z m50 -35 c0 -8 9 -19 20 -25 11 -6 20 -17 20 -26 0 -16 46 -38 61 -28
5 3 9 -5 9 -17 0 -12 11 -37 24 -54 14 -18 28 -43 31 -56 5 -21 1 -26 -30 -35
-33 -10 -36 -10 -41 12 -8 31 3 49 22 33 23 -19 16 0 -11 29 -24 25 -27 26
-39 10 -17 -23 -26 -23 -26 2 0 11 -5 20 -11 20 -6 0 -13 -9 -16 -20 -6 -21
-16 -23 -47 -11 -16 6 -17 9 -5 17 8 5 32 14 53 19 49 13 56 30 19 51 -36 22
-76 71 -68 84 9 15 35 12 35 -5z m340 -25 c0 -5 -7 -10 -15 -10 -8 0 -15 5
-15 10 0 6 7 10 15 10 8 0 15 -4 15 -10z m-5750 -30 c0 -5 -7 -10 -15 -10 -8
0 -15 5 -15 10 0 6 7 10 15 10 8 0 15 -4 15 -10z m5545 0 c3 -5 -1 -10 -10
-10 -9 0 -13 5 -10 10 3 6 8 10 10 10 2 0 7 -4 10 -10z m310 -30 c12 -19 -14
-10 -42 16 l-28 25 32 -15 c17 -9 35 -20 38 -26z m-1935 10 c0 -5 -4 -10 -10
-10 -5 0 -10 5 -10 10 0 6 5 10 10 10 6 0 10 -4 10 -10z m-4070 -50 c0 -5 -4
-10 -10 -10 -5 0 -10 5 -10 10 0 6 5 10 10 10 6 0 10 -4 10 -10z m964 -22 c5
-9 7 -21 2 -25 -4 -4 -12 0 -17 10 -6 9 -17 17 -24 17 -8 0 -15 5 -15 11 0 16
42 6 54 -13z m1195 7 c39 -4 68 -25 34 -25 -11 0 -23 -7 -27 -15 -3 -8 -14
-15 -25 -15 -11 0 -39 -18 -62 -41 -24 -24 -47 -38 -56 -35 -8 3 -30 -1 -48
-9 -30 -12 -39 -12 -61 0 l-26 13 30 16 c17 9 38 16 47 16 22 0 19 17 -5 25
-18 6 -16 10 21 47 39 40 41 40 92 33 29 -4 67 -9 86 -10z m1745 -24 c4 -5 32
-17 64 -27 63 -19 88 -36 78 -53 -14 -22 -57 -11 -86 20 l-29 32 -36 -17 c-34
-16 -35 -19 -21 -35 21 -23 20 -35 0 -27 -9 4 -23 1 -32 -6 -12 -11 -16 -10
-20 1 -2 7 -13 22 -23 32 -24 24 -24 25 8 24 22 0 29 6 36 33 8 24 16 32 33
32 12 0 25 -4 28 -9z m-3066 -15 c19 -3 35 -23 28 -35 -9 -14 -43 -14 -51 -1
-3 5 -12 7 -20 4 -8 -3 -19 -3 -25 1 -17 10 20 47 39 39 9 -3 22 -7 29 -8z
m2578 -41 c19 -14 19 -14 -2 -15 -11 0 -29 7 -40 15 -19 14 -19 14 2 15 11 0
29 -7 40 -15z m2644 5 c0 -5 -4 -10 -10 -10 -5 0 -10 5 -10 10 0 6 5 10 10 10
6 0 10 -4 10 -10z m-4240 -20 c-19 -13 -30 -13 -30 0 0 6 10 10 23 10 18 0 19
-2 7 -10z m2630 -10 c0 -5 -5 -10 -11 -10 -5 0 -7 5 -4 10 3 6 8 10 11 10 2 0
4 -4 4 -10z m-2696 -25 c-7 -17 -20 -20 -28 -6 -7 10 3 21 20 21 8 0 11 -6 8
-15z m126 -13 c0 -16 -42 -43 -58 -37 -15 6 -14 8 6 16 12 4 22 13 22 19 0 5
7 10 15 10 8 0 15 -3 15 -8z m1421 -8 c7 -9 22 -14 36 -11 15 3 23 -1 23 -9 0
-8 8 -14 18 -14 9 0 25 -7 36 -15 14 -10 24 -11 38 -4 11 6 32 7 48 4 26 -6
28 -9 19 -31 -12 -33 -13 -31 20 -36 27 -4 28 -3 20 24 -6 21 -4 28 7 28 8 0
14 -7 14 -15 0 -7 7 -18 17 -23 21 -12 10 -42 -16 -42 -14 0 -23 -9 -27 -27
-4 -16 -13 -33 -21 -40 -10 -8 -14 -22 -10 -38 3 -17 0 -28 -10 -32 -21 -8
-44 -59 -36 -80 6 -16 5 -16 -10 -4 -9 7 -17 19 -17 26 0 7 -14 15 -31 19 -48
9 -99 7 -99 -4 0 -5 8 -10 18 -10 9 0 29 -15 44 -34 l27 -33 -55 1 c-38 0 -58
-4 -64 -14 -13 -20 -18 -11 -20 35 -3 58 -1 62 15 41 13 -17 15 -18 15 -3 0
10 5 26 12 36 9 15 8 23 -8 44 -11 13 -26 43 -34 65 -7 23 -17 39 -21 37 -4
-3 -10 -1 -13 4 -4 5 -1 13 5 17 8 5 4 13 -12 26 -14 11 -18 18 -9 16 43 -6
81 32 45 46 -9 3 -15 18 -15 36 0 23 5 30 19 30 10 0 24 -7 32 -16z m-2348
-16 c-13 -12 -25 -19 -29 -15 -10 10 16 37 34 37 13 0 12 -4 -5 -22z m2601 16
c19 -7 21 -34 3 -34 -14 0 -37 20 -37 32 0 10 13 10 34 2z m524 -28 c-10 -7
-18 -18 -18 -25 0 -6 -13 -11 -30 -11 -22 0 -28 4 -24 15 4 8 17 18 29 21 13
3 26 13 30 22 4 12 8 13 18 3 9 -10 8 -15 -5 -25z m1277 18 c9 -9 13 -19 10
-22 -7 -7 -55 19 -55 30 0 14 28 9 45 -8z m-1588 0 c-3 -3 -12 -4 -19 -1 -8 3
-5 6 6 6 11 1 17 -2 13 -5z m2377 -9 c10 -27 -4 -41 -38 -41 -29 1 -32 3 -23
16 15 19 40 39 48 40 4 0 9 -7 13 -15z m-2159 -5 c3 -5 1 -10 -4 -10 -6 0 -11
5 -11 10 0 6 2 10 4 10 3 0 8 -4 11 -10z m-75 -16 c0 -8 -5 -12 -10 -9 -6 4
-8 11 -5 16 9 14 15 11 15 -7z m-2103 0 c-3 -3 -12 -4 -19 -1 -8 3 -5 6 6 6
11 1 17 -2 13 -5z m2008 -13 c-3 -6 -18 -10 -33 -10 -21 1 -22 2 -7 6 11 3 24
9 29 14 12 11 20 4 11 -10z m578 12 c-7 -2 -19 -2 -25 0 -7 3 -2 5 12 5 14 0
19 -2 13 -5z m-4921 -35 c-16 -17 -25 -19 -33 -11 -8 8 -4 15 17 26 37 19 44
13 16 -15z m6149 7 c24 8 26 -19 3 -42 -8 -9 -13 -22 -10 -29 9 -22 -19 -5
-43 26 -13 18 -16 27 -7 24 17 -6 31 12 16 21 -6 4 -7 11 -4 17 4 7 10 4 16
-6 6 -11 16 -15 29 -11z m-1164 9 c-3 -3 -12 -4 -19 -1 -8 3 -5 6 6 6 11 1 17
-2 13 -5z m-4907 -24 c0 -5 -5 -12 -11 -16 -14 -8 -33 11 -25 25 7 11 36 4 36
-9z m6632 -14 c-1 -14 3 -36 10 -48 6 -13 11 -36 9 -51 -1 -15 3 -35 10 -43 8
-10 9 -18 2 -25 -13 -13 -41 -1 -48 21 -3 11 -15 22 -26 25 -28 9 -23 25 10
38 28 10 29 12 16 37 -15 28 -9 83 9 77 6 -2 10 -16 8 -31z m-744 1 c22 5 31
-10 12 -22 -5 -3 -10 -15 -10 -26 0 -14 -7 -19 -27 -21 -50 -2 -88 4 -95 15
-10 17 3 27 42 30 28 2 34 7 32 22 -3 15 -1 17 10 7 8 -6 24 -9 36 -5z m347
-27 c21 -41 8 -60 -16 -23 -10 15 -19 34 -19 41 0 22 19 12 35 -18z m-3660 10
c3 -5 1 -10 -4 -10 -6 0 -11 5 -11 10 0 6 2 10 4 10 3 0 8 -4 11 -10z m2025
-18 c0 -8 -1 -13 -3 -11 -1 2 -9 12 -16 22 -12 15 -12 17 3 11 9 -3 16 -13 16
-22z m-2070 -2 c0 -5 -4 -10 -10 -10 -5 0 -10 5 -10 10 0 6 5 10 10 10 6 0 10
-4 10 -10z m-2025 -20 c0 -11 -8 -14 -28 -12 -16 2 -35 -2 -42 -8 -18 -15 -72
-30 -80 -22 -9 10 106 62 130 59 11 -1 20 -9 20 -17z m53 -10 c1 -33 -14 -48
-31 -31 -7 7 -7 18 1 36 16 34 29 32 30 -5z m746 5 c3 -8 1 -15 -4 -15 -6 0
-10 7 -10 15 0 8 2 15 4 15 2 0 6 -7 10 -15z m1196 0 c9 -11 16 -12 26 -4 18
15 34 3 34 -26 0 -13 9 -33 21 -44 13 -12 17 -21 10 -26 -6 -3 -11 -15 -11
-26 0 -28 -29 -69 -49 -69 -13 0 -16 -7 -13 -35 4 -37 -17 -57 -41 -37 -16 13
-67 3 -74 -14 -3 -8 -16 -14 -28 -14 -13 0 -35 -4 -49 -10 -34 -12 -33 -8 9
47 37 48 43 71 24 90 -9 9 -3 14 22 20 22 6 35 16 37 29 2 10 11 25 19 31 14
11 14 13 -3 19 -29 11 -74 44 -74 55 0 5 12 9 28 8 15 0 41 4 57 9 41 14 41
14 55 -3z m1014 -20 c3 -9 0 -15 -9 -15 -16 0 -27 14 -18 24 10 10 21 7 27 -9z
m86 -7 c2 -77 -1 -80 -45 -42 -19 17 -26 28 -17 31 6 2 12 11 12 18 0 9 8 11
25 7 13 -4 25 -10 25 -14z m62 -15 c-9 -7 -20 -13 -24 -13 -11 0 -2 31 12 40
21 13 32 -11 12 -27z m-3856 1 c-3 -9 1 -25 9 -37 26 -36 16 -49 -18 -23 -13
10 -15 21 -11 45 4 17 11 31 16 31 6 0 7 -7 4 -16z m6104 6 c0 -5 -4 -10 -10
-10 -5 0 -10 5 -10 10 0 6 5 10 10 10 6 0 10 -4 10 -10z m-5750 -20 c0 -5 -4
-10 -10 -10 -5 0 -10 5 -10 10 0 6 5 10 10 10 6 0 10 -4 10 -10z m-24 -47
c-10 -10 -19 5 -10 18 6 11 8 11 12 0 2 -7 1 -15 -2 -18z m1584 7 c0 -5 -9
-10 -21 -10 -11 0 -17 5 -14 10 3 6 13 10 21 10 8 0 14 -4 14 -10z m-2137 -36
c4 -22 1 -25 -22 -22 -37 4 -44 48 -8 48 19 0 26 -6 30 -26z m627 15 c0 -5 12
-9 28 -8 15 1 38 1 52 0 l25 -2 -24 -13 c-19 -11 -30 -10 -67 3 -44 16 -58 31
-29 31 8 0 15 -5 15 -11z m-292 -13 c-33 -14 -57 -44 -58 -69 0 -13 -5 -17
-19 -12 -26 8 -37 -13 -18 -33 15 -14 15 -17 -1 -29 -12 -11 -14 -16 -4 -19 6
-3 12 -14 12 -24 0 -11 10 -21 28 -25 25 -7 25 -8 7 -15 -11 -5 -23 -9 -27 -9
-7 -1 -29 43 -42 82 -3 9 -14 17 -25 17 -11 0 -21 5 -23 11 -2 7 -12 7 -31 -2
-23 -11 -30 -10 -37 1 -5 8 -3 18 5 26 7 8 15 19 17 25 3 9 10 8 26 -2 16 -10
25 -11 30 -3 4 6 31 23 60 38 28 14 52 32 52 39 0 7 15 13 38 13 37 2 37 2 10
-10z m2432 -6 c0 -5 -5 -10 -11 -10 -5 0 -7 5 -4 10 3 6 8 10 11 10 2 0 4 -4
4 -10z m3576 -35 c25 -25 50 -45 55 -45 5 0 9 -6 9 -14 0 -8 5 -16 12 -18 18
-6 0 -27 -40 -45 -71 -32 -73 -33 -67 -23 4 6 3 20 0 31 -7 20 -8 20 -26 -7
-17 -26 -17 -31 -3 -52 9 -13 13 -26 10 -29 -9 -9 -47 28 -40 38 3 5 -2 12
-10 15 -9 3 -16 11 -16 17 0 6 -6 18 -14 26 -20 23 2 87 28 83 37 -7 49 44 14
58 -21 8 -20 9 9 9 25 1 43 -9 79 -44z m-122 10 c3 -8 1 -15 -4 -15 -6 0 -10
7 -10 15 0 8 2 15 4 15 2 0 6 -7 10 -15z m1436 -20 c5 -14 16 -25 24 -25 13 0
30 -39 21 -49 -13 -12 -105 56 -105 77 0 6 10 13 23 15 12 2 23 5 25 6 1 0 7
-10 12 -24z m-7780 5 c0 -5 -5 -10 -11 -10 -5 0 -7 5 -4 10 3 6 8 10 11 10 2
0 4 -4 4 -10z m7350 -6 c0 -8 -4 -12 -10 -9 -5 3 -10 10 -10 16 0 5 5 9 10 9
6 0 10 -7 10 -16z m-144 -22 c8 -12 24 -22 35 -22 11 0 17 -5 14 -10 -4 -6
-15 -8 -25 -5 -26 8 -34 -12 -17 -39 9 -13 19 -41 23 -62 3 -21 15 -47 25 -57
29 -27 24 -47 -11 -47 -20 0 -30 5 -30 15 0 8 5 15 10 15 6 0 10 7 10 15 0 8
-6 15 -14 15 -14 0 -61 55 -83 97 -13 26 -11 28 17 11 32 -20 34 -2 7 51 l-26
50 25 -3 c14 -2 32 -13 40 -24z m-6436 8 c0 -5 -2 -10 -4 -10 -3 0 -8 5 -11
10 -3 6 -1 10 4 10 6 0 11 -4 11 -10z m-655 -20 c3 -5 1 -10 -4 -10 -6 0 -11
5 -11 10 0 6 2 10 4 10 3 0 8 -4 11 -10z m7020 0 c3 -5 2 -10 -4 -10 -5 0 -13
5 -16 10 -3 6 -2 10 4 10 5 0 13 -4 16 -10z m225 -13 c0 -7 -12 -20 -25 -30
-25 -18 -25 -18 -25 4 0 12 8 28 17 35 19 13 33 10 33 -9z m643 -59 c29 -70
27 -142 -2 -90 -9 15 -11 13 -23 -15 l-14 -32 -18 29 c-9 17 -14 30 -10 30 3
0 -1 11 -10 25 -21 32 -20 38 4 30 18 -6 20 -3 15 18 -6 24 0 30 37 36 4 0 14
-14 21 -31z m77 18 c0 -8 6 -16 13 -19 7 -2 8 -8 3 -13 -5 -5 -11 -4 -13 4 -3
6 -11 12 -19 12 -8 0 -14 7 -14 15 0 8 7 15 15 15 8 0 15 -6 15 -14z m-6053
-23 c5 -14 -53 -47 -67 -38 -6 4 -3 16 7 31 16 26 53 30 60 7z m269 -10 c-10
-10 -19 5 -10 18 6 11 8 11 12 0 2 -7 1 -15 -2 -18z m-2086 13 c0 -3 -4 -8
-10 -11 -5 -3 -10 -1 -10 4 0 6 5 11 10 11 6 0 10 -2 10 -4z m215 -5 c3 -5 1
-13 -5 -16 -15 -9 -43 3 -35 15 8 13 32 13 40 1z m7275 -21 c4 -30 0 -60 -9
-60 -9 0 -20 78 -12 86 7 6 19 -8 21 -26z m-3041 -26 c6 -15 10 -28 9 -29 -11
-9 -98 -13 -98 -5 0 18 45 56 71 59 3 1 11 -11 18 -25z m-2324 -14 c4 -6 12
-10 18 -8 18 3 57 -12 57 -22 0 -18 -42 -21 -76 -5 -34 16 -40 25 -27 38 9 10
21 9 28 -3z m-964 -42 c1 -7 2 -19 3 -27 0 -8 7 -16 14 -19 7 -2 11 2 10 8 -2
7 3 15 10 17 8 3 10 -1 6 -12 -4 -9 0 -21 9 -28 8 -7 18 -25 21 -40 6 -26 5
-27 -14 -17 -23 12 -40 6 -40 -14 0 -8 -9 -16 -20 -19 -30 -8 -24 -28 8 -25
22 3 27 -1 25 -18 -1 -12 7 -30 17 -39 11 -10 20 -22 20 -26 0 -17 -53 -60
-67 -54 -9 3 -21 1 -28 -5 -9 -7 -26 -5 -57 9 -28 12 -50 16 -59 10 -9 -5 -22
-3 -36 6 -12 8 -24 15 -26 15 -6 0 0 -84 7 -102 5 -11 0 -24 -14 -38 -18 -18
-20 -26 -11 -46 6 -15 7 -25 1 -29 -6 -4 -10 -2 -10 3 0 5 -12 17 -26 27 -25
16 -26 16 -50 -10 -36 -39 -58 -85 -41 -85 8 0 22 -9 31 -19 17 -19 17 -20 -6
-31 -13 -7 -31 -22 -40 -34 -9 -11 -20 -18 -24 -14 -4 4 -1 14 6 23 11 13 8
15 -19 15 -24 0 -31 -4 -31 -19 0 -11 4 -22 10 -26 5 -3 7 -12 4 -20 -4 -10 3
-18 20 -25 31 -12 33 -25 5 -40 -16 -9 -24 -8 -38 4 -26 24 -108 19 -114 -6
-3 -10 -14 -18 -25 -18 -24 0 -52 -35 -52 -63 0 -15 5 -18 20 -14 17 4 20 2
15 -14 -6 -17 -4 -17 21 -4 48 25 61 -6 20 -49 -27 -30 -36 -32 -36 -11 0 8
-7 15 -15 15 -8 0 -24 9 -36 21 -14 14 -28 19 -44 15 -17 -4 -31 2 -54 23 -18
16 -39 27 -49 25 -19 -5 -50 12 -40 22 4 3 21 9 39 13 18 3 37 15 43 26 6 11
16 23 22 27 6 4 9 19 7 32 -7 33 29 82 45 63 7 -8 7 -18 2 -27 -14 -21 -12
-30 5 -30 9 0 15 -9 15 -21 0 -12 5 -19 13 -16 6 2 11 11 11 20 -1 9 7 19 17
22 21 7 53 65 42 76 -5 4 -19 9 -33 11 -17 2 -26 10 -28 25 -4 25 -39 40 -55
24 -8 -8 -8 -11 2 -11 7 0 11 -9 9 -22 -2 -17 -11 -24 -30 -26 -30 -4 -36 6
-16 26 9 9 7 13 -5 18 -9 3 -23 20 -32 37 -13 26 -13 33 -1 46 7 9 16 28 20
43 11 50 116 93 116 48 0 -31 17 -24 35 14 18 38 62 55 81 30 6 -8 26 -14 44
-14 28 0 31 -2 20 -15 -10 -12 -9 -15 5 -15 13 0 16 6 11 25 -5 18 -1 27 13
34 10 6 21 8 23 5 3 -3 8 4 11 15 3 14 1 18 -10 14 -22 -9 -112 37 -106 53 7
18 34 18 69 0 30 -16 44 -13 44 10 0 8 11 19 24 24 34 13 63 57 47 73 -29 29
2 36 54 11 31 -14 35 -14 59 1 14 9 28 26 32 37 4 15 12 18 29 14 13 -3 37 -3
55 0 27 6 31 10 26 29 -4 15 -1 25 9 29 8 3 15 12 15 21 0 18 19 21 21 3z
m2053 -13 c-6 -16 -34 -21 -34 -7 0 13 11 22 26 22 8 0 11 -6 8 -15z m3094
-23 c6 -18 -15 -14 -22 4 -4 10 -1 14 6 12 6 -2 14 -10 16 -16z m173 -14 c22
-12 39 -28 39 -35 0 -17 27 -17 34 0 3 8 12 3 26 -15 12 -16 28 -28 36 -28 26
0 14 -20 -16 -27 -17 -3 -33 -10 -36 -14 -3 -5 -11 -9 -17 -9 -7 0 -3 7 7 15
11 8 18 16 15 18 -67 54 -82 61 -93 46 -7 -11 -24 -15 -51 -14 -22 2 -53 3
-68 4 -23 1 -28 5 -25 24 2 18 9 22 42 22 26 0 43 6 50 18 13 21 11 21 57 -5z
m69 2 c0 -5 -7 -10 -15 -10 -8 0 -15 5 -15 10 0 6 7 10 15 10 8 0 15 -4 15
-10z m363 -37 c5 -25 3 -33 -8 -33 -22 0 -28 20 -14 46 15 28 14 28 22 -13z
m-6213 -7 c0 -27 -14 -41 -30 -31 -11 7 8 55 22 55 4 0 8 -11 8 -24z m1790 -1
c0 -8 -4 -15 -10 -15 -5 0 -10 7 -10 15 0 8 5 15 10 15 6 0 10 -7 10 -15z
m5310 -24 c38 -37 77 -122 64 -143 -16 -25 -92 28 -81 57 4 9 -2 34 -13 55
-19 37 -26 70 -15 70 3 0 23 -18 45 -39z m-760 19 c0 -5 -4 -10 -10 -10 -5 0
-10 5 -10 10 0 6 5 10 10 10 6 0 10 -4 10 -10z m80 -24 c0 -3 -4 -8 -10 -11
-5 -3 -10 -1 -10 4 0 6 5 11 10 11 6 0 10 -2 10 -4z m-4640 -16 c0 -5 -5 -10
-11 -10 -5 0 -7 5 -4 10 3 6 8 10 11 10 2 0 4 -4 4 -10z m-115 -16 c-9 -9 -18
-14 -21 -11 -9 9 6 27 22 27 13 0 13 -2 -1 -16z m-1729 -3 c-8 -12 -46 -21
-46 -11 0 5 8 11 18 13 29 8 33 7 28 -2z m5549 -11 c3 -5 2 -10 -4 -10 -5 0
-13 5 -16 10 -3 6 -2 10 4 10 5 0 13 -4 16 -10z m330 -20 c-5 -8 -11 -8 -17
-2 -6 6 -7 16 -3 22 5 8 11 8 17 2 6 -6 7 -16 3 -22z m-5735 10 c0 -5 -7 -10
-15 -10 -8 0 -15 5 -15 10 0 6 7 10 15 10 8 0 15 -4 15 -10z m1611 -32 c9 -35
-3 -36 -25 -3 -20 31 -20 37 1 33 9 -2 20 -15 24 -30z m-2505 -5 c-8 -8 -36 5
-36 17 0 7 6 7 21 0 11 -7 18 -14 15 -17z m7072 -1 c2 -7 -2 -10 -12 -6 -9 3
-16 11 -16 16 0 13 23 5 28 -10z m-4336 -53 c-5 -33 -6 -33 -48 -19 -32 11
-38 10 -46 -4 -13 -24 -58 -21 -58 4 0 14 7 20 21 20 11 0 30 5 41 11 16 9 22
8 29 -2 7 -11 12 -11 26 4 23 23 39 16 35 -14z m3984 14 c16 -21 18 -37 4 -28
-13 8 -33 45 -24 45 4 0 13 -8 20 -17z m1027 -26 c-8 -13 -23 3 -23 26 0 20 0
20 14 2 8 -11 12 -23 9 -28z m302 3 c7 -22 46 -65 64 -71 14 -5 2 -49 -13 -49
-9 0 -38 52 -74 133 -2 4 1 7 6 7 6 0 14 -9 17 -20z m-215 1 c0 -5 -7 -14 -15
-21 -13 -10 -15 -9 -15 9 0 12 6 21 15 21 8 0 15 -4 15 -9z m-7270 -16 c34
-17 34 -19 19 -46 -12 -24 -23 -18 -43 23 -23 45 -22 47 24 23z m2000 -9 c0
-3 -4 -8 -10 -11 -5 -3 -10 -1 -10 4 0 6 5 11 10 11 6 0 10 -2 10 -4z m723
-16 c13 -12 -2 -50 -19 -50 -30 0 -56 44 -37 63 7 8 43 -1 56 -13z m100 3 c2
-5 1 -37 -4 -73 -7 -54 -5 -67 8 -77 22 -17 28 -93 7 -93 -12 0 -13 -4 -3 -21
11 -21 10 -22 -20 -16 -48 10 -74 38 -62 69 10 26 4 76 -11 95 -12 15 -2 33
18 33 8 0 14 10 14 25 0 43 38 84 53 58z m3077 -25 c0 -5 -7 -8 -15 -8 -15 0
-20 21 -8 33 7 7 23 -11 23 -25z m260 6 c0 -8 12 -19 26 -24 37 -15 49 -13 33
6 -10 12 -10 17 0 23 16 10 92 -15 109 -36 17 -23 15 -43 -4 -43 -9 0 -14 -5
-12 -12 7 -21 25 -20 31 2 7 26 64 29 74 3 4 -10 19 -33 35 -52 23 -26 27 -36
18 -45 -9 -8 -14 -8 -17 2 -3 6 -11 12 -19 12 -8 0 -14 9 -14 20 0 11 -7 20
-15 20 -8 0 -15 -4 -15 -9 0 -21 -41 -22 -66 -2 -27 21 -53 19 -36 -2 5 -7 16
-31 25 -54 16 -41 16 -43 -2 -43 -10 0 -26 -9 -36 -20 -28 -31 -52 -25 -59 14
-4 19 -12 37 -19 39 -9 4 -9 7 1 18 6 7 12 26 12 41 0 18 5 28 15 28 10 0 15
10 15 29 0 24 -3 28 -20 24 -11 -3 -20 -10 -20 -15 0 -5 -16 -6 -36 -2 -30 6
-36 4 -41 -15 -3 -11 -9 -21 -13 -21 -18 0 -17 -56 1 -89 16 -31 17 -36 4 -44
-8 -4 -15 -19 -15 -32 0 -13 -5 -27 -11 -31 -6 -3 -8 -17 -4 -31 l6 -25 -28
20 c-15 10 -40 22 -55 26 -26 6 -27 6 -13 -21 14 -27 11 -48 -6 -38 -5 4 -9
12 -9 20 0 21 -19 28 -35 15 -19 -16 -101 -4 -109 15 -8 21 23 49 39 35 9 -7
16 -6 25 5 17 21 30 19 30 -5 0 -24 9 -25 36 -5 10 8 33 15 51 15 46 0 61 31
33 68 l-22 27 21 14 c12 7 21 21 21 30 0 9 4 21 9 27 5 5 12 19 16 32 5 18 2
22 -14 22 -12 0 -21 7 -21 15 0 9 9 15 23 15 15 0 29 11 41 30 17 30 36 32 36
4z m-6290 -4 c0 -5 -9 -10 -21 -10 -11 0 -17 5 -14 10 3 6 13 10 21 10 8 0 14
-4 14 -10z m7318 -2 c7 -7 12 -19 12 -28 0 -22 28 -46 63 -54 15 -4 27 -13 27
-22 0 -10 -6 -14 -15 -10 -11 4 -15 0 -13 -12 2 -13 -3 -17 -26 -15 -41 3 -56
21 -33 38 16 12 14 16 -29 53 -46 39 -51 62 -15 62 9 0 22 -5 29 -12z m-7868
-23 c0 -8 -6 -15 -14 -15 -17 0 -28 14 -19 24 12 12 33 6 33 -9z m510 -7 c0
-13 -23 -5 -28 10 -2 7 2 10 12 6 9 -3 16 -11 16 -16z m100 1 c0 -5 -9 -9 -20
-9 -13 0 -22 -9 -26 -25 -7 -29 -24 -33 -24 -6 0 11 12 29 26 40 25 20 44 20
44 0z m970 0 c0 -6 -4 -7 -10 -4 -5 3 -10 11 -10 16 0 6 5 7 10 4 6 -3 10 -11
10 -16z m4890 -8 c0 -20 -25 -35 -41 -25 -15 9 -10 32 9 37 30 8 32 7 32 -12z
m-6312 -34 c4 -32 -17 -37 -36 -7 -7 11 -19 20 -27 20 -8 0 -15 6 -15 13 0 10
10 12 38 8 31 -5 37 -11 40 -34z m5952 39 c0 -3 -4 -8 -10 -11 -5 -3 -10 -1
-10 4 0 6 5 11 10 11 6 0 10 -2 10 -4z m-5654 -33 c-8 -8 -36 5 -36 17 0 7 6
7 21 0 11 -7 18 -14 15 -17z m1129 7 c3 -5 1 -10 -4 -10 -6 0 -11 5 -11 10 0
6 2 10 4 10 3 0 8 -4 11 -10z m6605 -9 c0 -6 -4 -13 -10 -16 -5 -3 -10 1 -10
9 0 9 5 16 10 16 6 0 10 -4 10 -9z m90 -6 c16 -19 0 -19 -26 0 -16 12 -16 14
-3 15 9 0 22 -7 29 -15z m-1550 -11 c0 -8 -5 -12 -10 -9 -6 4 -8 11 -5 16 9
14 15 11 15 -7z m-6221 -45 c-18 -12 -51 -7 -56 8 -3 7 9 13 29 15 35 3 49 -9
27 -23z m2591 21 c0 -5 -4 -10 -10 -10 -5 0 -10 5 -10 10 0 6 5 10 10 10 6 0
10 -4 10 -10z m-57 -7 c8 -7 -11 -33 -24 -33 -5 0 -9 9 -9 20 0 19 20 27 33
13z m122 -13 c3 -5 2 -10 -4 -10 -5 0 -13 5 -16 10 -3 6 -2 10 4 10 5 0 13 -4
16 -10z m-2554 -31 c16 -24 19 -33 10 -42 -10 -9 -16 -7 -27 8 -8 11 -12 25
-10 32 7 17 -6 17 -23 1 -11 -10 -10 -8 0 10 18 29 23 28 50 -9z m5746 9 c-3
-8 -6 -5 -6 6 -1 11 2 17 5 13 3 -3 4 -12 1 -19z m-2677 1 c0 -6 -9 -13 -20
-16 -36 -10 -15 -28 29 -25 31 2 43 -2 48 -14 10 -25 -24 -44 -66 -38 -39 6
-61 28 -54 55 3 9 0 20 -6 23 -23 14 -10 26 29 26 22 0 40 -5 40 -11z m1321
-24 c6 -16 12 -55 14 -85 2 -30 1 -47 -2 -37 -6 21 -23 23 -23 1 0 -9 -5 -14
-12 -12 -7 3 -12 30 -13 73 -1 42 -7 71 -14 73 -17 6 -5 18 18 18 14 0 24 -10
32 -31z m1614 10 c0 -10 -6 -20 -12 -22 -8 -3 -13 5 -13 22 0 17 5 25 13 23 6
-3 12 -13 12 -23z m-7108 -7 c-3 -8 -6 -5 -6 6 -1 11 2 17 5 13 3 -3 4 -12 1
-19z m393 6 c0 -8 -5 -12 -10 -9 -6 4 -8 11 -5 16 9 14 15 11 15 -7z m6620 1
c0 -9 -14 -17 -40 -21 -22 -4 -37 -10 -34 -15 3 -5 -6 -9 -20 -9 -14 0 -29 0
-33 -1 -4 0 -9 4 -11 10 -2 6 8 11 22 11 14 0 26 5 26 11 0 6 9 9 20 6 10 -3
24 1 31 9 15 18 39 18 39 -1z m490 5 c0 -5 -4 -10 -10 -10 -5 0 -10 5 -10 10
0 6 5 10 10 10 6 0 10 -4 10 -10z m390 -31 c0 -5 -4 -9 -10 -9 -5 0 -10 7 -10
16 0 8 5 12 10 9 6 -3 10 -10 10 -16z m-2300 -14 c0 -8 -4 -17 -10 -20 -6 -4
-10 5 -10 20 0 15 4 24 10 20 6 -3 10 -12 10 -20z m3314 -65 c-4 -19 -8 -47
-7 -62 0 -40 -24 -35 -42 8 -13 32 -13 37 0 51 8 8 15 31 15 51 l1 37 20 -25
c16 -19 19 -31 13 -60z m-1046 58 c-2 -6 -10 -14 -16 -16 -7 -2 -10 2 -6 12 7
18 28 22 22 4z m-7545 -48 c3 -11 0 -23 -6 -28 -7 -4 -12 -13 -12 -19 0 -7 -4
-13 -10 -13 -5 0 -10 11 -9 25 3 76 4 78 18 66 8 -6 16 -21 19 -31z m793 18
c4 -6 2 -14 -4 -16 -17 -5 -15 -27 3 -42 8 -7 15 -16 15 -21 0 -18 -22 -8 -56
26 -30 30 -32 35 -14 35 11 0 20 7 20 15 0 18 26 20 36 3z m4574 2 c0 -5 -5
-10 -11 -10 -5 0 -7 5 -4 10 3 6 8 10 11 10 2 0 4 -4 4 -10z m-1370 -25 c0 -8
-4 -15 -9 -15 -5 0 -11 7 -15 15 -3 9 0 15 9 15 8 0 15 -7 15 -15z m-3932 -17
c-5 -32 -28 -35 -28 -4 0 17 5 26 16 26 10 0 14 -7 12 -22z m7361 0 c5 -14 5
-28 -2 -36 -7 -9 -5 -18 7 -31 17 -18 17 -21 0 -46 -22 -33 -38 -27 -42 16 -2
19 -8 39 -14 46 -10 12 5 51 26 65 15 11 16 11 25 -14z m-6772 -44 c-5 -31 -3
-34 19 -34 14 0 24 -6 24 -14 0 -9 -10 -13 -32 -11 -18 2 -44 3 -57 4 -23 1
-23 2 -8 19 10 10 15 21 12 24 -3 3 -1 17 4 31 16 40 45 25 38 -19z m288 36
c-3 -5 -11 -10 -16 -10 -6 0 -7 5 -4 10 3 6 11 10 16 10 6 0 7 -4 4 -10z
m6350 0 c3 -5 1 -10 -4 -10 -6 0 -11 5 -11 10 0 6 2 10 4 10 3 0 8 -4 11 -10z
m-1924 -13 c-1 -12 -15 -9 -19 4 -3 6 1 10 8 8 6 -3 11 -8 11 -12z m1965 -14
c-10 -10 -19 5 -10 18 6 11 8 11 12 0 2 -7 1 -15 -2 -18z m-6607 3 c8 -10 9
-16 1 -21 -13 -8 -30 3 -30 21 0 18 14 18 29 0z m8021 -31 c0 -8 -4 -15 -9
-15 -13 0 -22 16 -14 24 11 11 23 6 23 -9z m-5082 -39 c9 -17 19 -25 28 -22
16 6 11 -7 -13 -36 -11 -13 -12 -21 -3 -37 12 -23 1 -28 -19 -8 -10 10 -15 8
-29 -10 -18 -24 -72 -42 -72 -25 0 6 -3 17 -6 26 -4 11 -1 16 10 16 9 0 16 7
16 15 0 10 10 15 29 15 17 0 31 6 35 16 9 25 7 64 -4 64 -5 0 -10 5 -10 11 0
19 25 3 38 -25z m3561 28 c22 -5 31 -12 31 -26 0 -11 10 -28 23 -39 16 -13 18
-18 7 -19 -9 0 -28 15 -44 33 -16 17 -40 37 -55 44 -30 13 -11 17 38 7z m-599
-14 c0 -5 -2 -10 -4 -10 -3 0 -8 5 -11 10 -3 6 -1 10 4 10 6 0 11 -4 11 -10z
m-2780 -10 c0 -5 -2 -10 -4 -10 -3 0 -8 5 -11 10 -3 6 -1 10 4 10 6 0 11 -4
11 -10z m-3460 -15 c0 -9 -6 -12 -15 -9 -8 4 -12 10 -9 15 8 14 24 10 24 -6z
m3458 -19 c3 -4 1 -19 -4 -34 -11 -31 -54 -45 -54 -17 0 9 -9 19 -20 22 -20 5
-26 23 -12 37 8 8 80 2 90 -8z m202 -6 c0 -17 -46 -59 -54 -49 -2 2 1 19 6 37
10 37 48 47 48 12z m-1355 -10 c9 -29 -2 -42 -25 -27 -23 13 -26 33 -7 40 21
9 26 7 32 -13z m4519 -6 c3 -8 2 -12 -4 -9 -6 3 -10 10 -10 16 0 14 7 11 14
-7z m-1216 -23 c3 -8 -1 -12 -9 -9 -7 2 -15 10 -17 17 -3 8 1 12 9 9 7 -2 15
-10 17 -17z m1357 -1 c3 -5 -3 -10 -14 -10 -12 0 -21 5 -21 10 0 6 6 10 14 10
8 0 18 -4 21 -10z m-3455 -10 c0 -5 -4 -10 -10 -10 -5 0 -10 5 -10 10 0 6 5
10 10 10 6 0 10 -4 10 -10z m2050 0 c0 -5 -4 -10 -10 -10 -5 0 -10 5 -10 10 0
6 5 10 10 10 6 0 10 -4 10 -10z m1329 1 c17 -11 6 -31 -18 -31 -18 0 -41 18
-41 32 0 11 41 10 59 -1z m-7489 -32 c0 -6 -4 -7 -10 -4 -5 3 -10 11 -10 16 0
6 5 7 10 4 6 -3 10 -11 10 -16z m408 -9 c-11 -17 -10 -22 2 -30 13 -9 13 -11
0 -20 -35 -22 -54 19 -23 50 24 25 36 25 21 0z m106 -19 c9 -14 -40 -31 -53
-18 -15 15 -14 34 2 40 13 5 43 -8 51 -22z m5716 15 c0 -16 -14 -36 -26 -36
-14 0 -19 22 -7 33 7 8 33 10 33 3z m1250 -24 c-17 -6 -42 7 -35 18 4 6 13 5
26 -3 10 -6 15 -13 9 -15z m-7280 -12 c0 -5 9 -10 19 -10 10 0 36 -20 57 -45
34 -41 41 -45 69 -39 29 5 33 3 39 -21 9 -35 5 -38 -28 -25 -40 15 -76 13 -76
-5 0 -24 -26 -28 -54 -10 -21 14 -29 15 -41 5 -12 -10 -15 -9 -16 6 -1 11 -1
23 0 28 1 5 -1 16 -5 25 -12 26 -12 85 0 93 16 11 36 10 36 -2z m2258 -8 c2
-7 -6 -12 -17 -12 -21 0 -27 11 -14 24 9 9 26 2 31 -12z m2922 -12 c0 -11 -4
-20 -9 -20 -5 0 -7 9 -4 20 3 11 7 20 9 20 2 0 4 -9 4 -20z m-5333 -14 c-3 -7
-1 -18 5 -24 12 -12 -5 -25 -38 -28 l-22 -2 20 34 c19 33 46 48 35 20z m2133
-39 c25 -6 27 -25 3 -23 -14 2 -64 21 -81 32 -2 1 5 12 15 23 l17 21 13 -24
c7 -13 21 -26 33 -29z m-1822 31 c-6 -18 -28 -21 -28 -4 0 9 7 16 16 16 9 0
14 -5 12 -12z m8179 -10 c-3 -8 -6 -5 -6 6 -1 11 2 17 5 13 3 -3 4 -12 1 -19z
m-6210 -13 c-7 -14 -20 -25 -29 -25 -24 0 -23 17 2 25 11 3 20 11 20 16 0 5 4
9 9 9 5 0 4 -11 -2 -25z m1143 -44 c0 -13 -30 -35 -37 -27 -4 3 -1 12 5 18 15
15 16 42 2 33 -6 -4 -10 6 -10 22 l0 28 20 -33 c11 -18 20 -36 20 -41z m-1730
45 c0 -3 -4 -8 -10 -11 -5 -3 -10 -1 -10 4 0 6 5 11 10 11 6 0 10 -2 10 -4z
m-1770 -16 c0 -5 -5 -10 -11 -10 -5 0 -7 5 -4 10 3 6 8 10 11 10 2 0 4 -4 4
-10z m1447 -12 c-3 -8 -6 -5 -6 6 -1 11 2 17 5 13 3 -3 4 -12 1 -19z m7189 12
c18 0 18 -24 -1 -40 -23 -19 -53 -4 -47 26 3 17 9 23 19 20 8 -3 21 -6 29 -6z
m74 -10 c0 -19 -23 -59 -31 -54 -5 3 -9 18 -9 35 0 22 5 29 20 29 11 0 20 -4
20 -10z m-8090 -35 c17 -21 8 -27 -24 -19 -21 5 -24 9 -15 20 15 18 24 18 39
-1z m1520 -21 c0 -16 55 -20 65 -4 11 18 79 12 97 -9 15 -18 14 -19 -8 -29
-12 -6 -30 -22 -39 -36 -14 -21 -20 -23 -35 -14 -14 9 -27 7 -61 -10 -51 -25
-70 -16 -45 22 16 25 16 26 -5 26 -18 0 -20 4 -14 27 12 48 45 68 45 27z
m6263 -25 c2 -8 6 -19 10 -26 11 -17 -13 -27 -28 -12 -8 8 -17 32 -20 54 l-7
40 22 -21 c12 -11 22 -27 23 -35z m-8243 11 c-11 -20 -30 -28 -30 -12 0 11 22
32 32 32 5 0 4 -9 -2 -20z m5964 -40 c5 -30 11 -40 25 -40 18 0 37 -27 27 -37
-11 -11 -67 11 -84 32 -11 13 -31 27 -45 30 -14 4 -34 16 -44 27 -18 21 -18
21 24 14 36 -5 45 -3 55 13 17 27 34 11 42 -39z m-5669 20 c0 -7 -6 -15 -12
-17 -8 -3 -13 4 -13 17 0 13 5 20 13 18 6 -3 12 -11 12 -18z m8090 10 c3 -5 1
-10 -4 -10 -6 0 -11 5 -11 10 0 6 2 10 4 10 3 0 8 -4 11 -10z m-6164 -13 c-1
-12 -15 -9 -19 4 -3 6 1 10 8 8 6 -3 11 -8 11 -12z m-777 -16 c9 -15 -22 -33
-44 -26 -25 8 -26 22 -2 28 29 8 41 7 46 -2z m2649 -5 c15 -4 27 -11 27 -17 0
-14 -46 -3 -74 18 -20 14 -20 15 -1 10 11 -3 32 -8 48 -11z m-3926 -18 c-3 -8
-6 -5 -6 6 -1 11 2 17 5 13 3 -3 4 -12 1 -19z m5693 2 c3 -3 13 -9 23 -13 18
-7 23 -42 8 -52 -9 -5 -36 32 -33 45 0 3 -6 4 -14 2 -17 -3 -44 15 -44 29 0
10 52 0 60 -11z m2459 -6 c3 -16 1 -17 -13 -5 -19 16 -21 34 -3 29 6 -3 14
-13 16 -24z m-7814 -5 c11 -16 1 -20 -33 -13 -18 4 -29 10 -26 15 7 13 51 11
59 -2z m5231 -1 c9 -15 -27 -41 -39 -29 -13 13 -1 41 17 41 8 0 18 -5 22 -12z"/>
<path d="M4112 2528 c3 -7 13 -15 22 -16 12 -3 17 1 14 10 -3 7 -13 15 -22 16
-12 3 -17 -1 -14 -10z"/>
<path d="M4030 2440 c0 -5 7 -10 15 -10 8 0 15 5 15 10 0 6 -7 10 -15 10 -8 0
-15 -4 -15 -10z"/>
<path d="M3325 2369 c-10 -14 -1 -21 19 -13 9 3 13 10 10 15 -7 12 -21 11 -29
-2z"/>
<path d="M2955 2200 c-3 -5 -1 -10 4 -10 6 0 11 5 11 10 0 6 -2 10 -4 10 -3 0
-8 -4 -11 -10z"/>
<path d="M2400 1940 c-22 -6 -23 -8 -7 -15 11 -4 23 -3 30 4 15 15 7 19 -23
11z"/>
<path d="M4970 2224 c0 -28 15 -25 23 6 3 13 0 20 -9 20 -8 0 -14 -10 -14 -26z"/>
<path d="M4990 2170 c0 -5 -7 -10 -16 -10 -13 0 -14 -3 -5 -14 8 -10 9 -16 1
-21 -20 -13 -9 -33 20 -37 37 -6 48 7 26 31 -11 12 -13 20 -5 28 6 6 8 16 5
22 -9 14 -26 14 -26 1z"/>
<path d="M5006 2063 c-11 -11 -6 -23 9 -23 8 0 15 4 15 9 0 13 -16 22 -24 14z"/>
<path d="M7650 1942 c0 -12 19 -26 26 -19 2 2 -2 10 -11 17 -9 8 -15 8 -15 2z"/>
<path d="M5407 1535 c6 -17 25 -15 31 3 2 7 -5 12 -17 12 -14 0 -19 -5 -14
-15z"/>
<path d="M3954 1419 c-3 -5 1 -9 9 -9 8 0 17 -7 21 -15 8 -23 31 -18 44 9 11
24 10 25 -29 24 -21 0 -42 -4 -45 -9z"/>
<path d="M3945 1330 c-3 -5 -1 -10 4 -10 6 0 11 5 11 10 0 6 -2 10 -4 10 -3 0
-8 -4 -11 -10z"/>
<path d="M8240 1240 c0 -5 5 -10 11 -10 5 0 7 5 4 10 -3 6 -8 10 -11 10 -2 0
-4 -4 -4 -10z"/>
<path d="M2157 1013 c-13 -12 -7 -53 7 -53 20 0 29 16 21 40 -6 20 -17 25 -28
13z"/>
<path d="M2130 875 c0 -8 7 -15 15 -15 8 0 15 7 15 15 0 8 -7 15 -15 15 -8 0
-15 -7 -15 -15z"/>
<path d="M1810 760 c0 -5 5 -10 10 -10 6 0 10 5 10 10 0 6 -4 10 -10 10 -5 0
-10 -4 -10 -10z"/>
<path d="M1985 762 c-2 -2 -2 -9 1 -16 3 -7 -7 -23 -21 -36 -38 -36 -29 -90
15 -90 16 0 60 50 60 69 0 6 9 15 20 21 11 6 20 19 20 29 0 15 -9 20 -46 23
-25 2 -47 2 -49 0z"/>
<path d="M1857 540 c3 -11 11 -19 17 -17 17 6 13 31 -6 35 -12 2 -15 -2 -11
-18z"/>
<path d="M7945 640 c-3 -5 -1 -10 4 -10 6 0 11 5 11 10 0 6 -2 10 -4 10 -3 0
-8 -4 -11 -10z"/>
<path d="M1674 3179 c-14 -16 -15 -24 -6 -44 14 -30 22 -31 50 -5 17 16 20 25
12 39 -14 28 -36 32 -56 10z"/>
<path d="M6095 3180 c-3 -5 1 -10 9 -10 9 0 16 5 16 10 0 6 -4 10 -9 10 -6 0
-13 -4 -16 -10z"/>
<path d="M5493 3159 c2 -25 38 -69 56 -69 14 0 14 17 0 26 -8 5 -6 10 5 16 11
6 22 6 31 -2 8 -6 26 -10 42 -8 l28 4 -30 8 c-16 4 -43 13 -60 21 -60 27 -74
28 -72 4z"/>
<path d="M4490 3160 c0 -5 7 -10 16 -10 8 0 12 5 9 10 -3 6 -10 10 -16 10 -5
0 -9 -4 -9 -10z"/>
<path d="M4956 3145 c16 -25 64 -36 64 -15 0 6 -12 10 -26 10 -19 0 -25 4 -20
15 4 10 -1 15 -15 15 -18 0 -19 -1 -3 -25z"/>
<path d="M5211 3147 c-6 -8 -30 -20 -53 -28 -24 -7 -54 -19 -67 -25 l-23 -12
22 -12 c17 -9 24 -9 33 2 19 22 64 48 86 48 10 0 29 9 42 20 l24 19 -26 1
c-15 0 -32 -6 -38 -13z"/>
<path d="M4432 3139 c2 -7 10 -15 17 -17 8 -3 12 1 9 9 -2 7 -10 15 -17 17 -8
3 -12 -1 -9 -9z"/>
<path d="M1501 3124 c0 -11 3 -14 6 -6 3 7 2 16 -1 19 -3 4 -6 -2 -5 -13z"/>
<path d="M5315 3120 c-4 -6 -2 -17 4 -23 15 -15 25 -2 13 19 -7 12 -11 13 -17
4z"/>
<path d="M5222 3063 c2 -11 14 -19 31 -21 34 -4 35 11 2 26 -34 16 -37 15 -33
-5z"/>
<path d="M5295 3070 c-4 -6 5 -10 20 -10 15 0 24 4 20 10 -3 6 -12 10 -20 10
-8 0 -17 -4 -20 -10z"/>
<path d="M5072 3028 c4 -12 117 -33 126 -23 2 2 -13 11 -33 19 -46 20 -98 21
-93 4z"/>
<path d="M4969 3009 c-10 -6 -7 -9 14 -9 29 0 35 5 14 13 -8 3 -20 1 -28 -4z"/>
<path d="M4995 2975 c-5 -2 -22 -6 -37 -9 -28 -6 -40 -36 -15 -36 21 0 77 30
77 41 0 9 -7 10 -25 4z"/>
<path d="M3204 2808 c-37 -29 -30 -41 19 -33 41 7 60 21 54 39 -6 17 -48 13
-73 -6z"/>
<path d="M6710 2821 c0 -10 61 -34 68 -26 3 2 -1 11 -8 20 -13 16 -60 21 -60
6z"/>
<path d="M6800 2790 c0 -5 -7 -10 -15 -10 -9 0 -12 -6 -9 -15 4 -8 12 -15 20
-15 8 0 11 6 8 15 -4 8 -1 15 5 15 6 0 11 5 11 10 0 6 -4 10 -10 10 -5 0 -10
-4 -10 -10z"/>
<path d="M1231 2703 c0 -17 -5 -33 -10 -35 -5 -1 -7 -25 -4 -51 3 -27 9 -44
12 -39 13 21 84 53 94 43 7 -7 16 -2 29 14 18 23 18 26 3 49 -9 14 -14 30 -10
36 8 13 -11 13 -36 -1 -16 -8 -18 -13 -8 -25 15 -18 9 -24 -27 -27 -26 -2 -30
2 -35 33 l-6 35 -2 -32z"/>
<path d="M2567 2669 c-11 -6 -35 -12 -55 -13 -43 -1 -51 -17 -17 -32 19 -9 28
-9 42 2 10 7 33 14 52 14 26 0 32 3 27 16 -3 9 -6 18 -6 20 0 8 -25 3 -43 -7z"/>
<path d="M5651 2624 c0 -11 3 -14 6 -6 3 7 2 16 -1 19 -3 4 -6 -2 -5 -13z"/>
<path d="M5910 2600 c0 -5 5 -10 10 -10 6 0 10 5 10 10 0 6 -4 10 -10 10 -5 0
-10 -4 -10 -10z"/>
<path d="M5810 2560 c0 -37 55 -62 90 -40 12 7 12 12 1 34 -11 20 -21 25 -52
24 -30 0 -39 -4 -39 -18z"/>
<path d="M1115 2530 c-3 -5 3 -10 15 -10 12 0 18 5 15 10 -3 6 -10 10 -15 10
-5 0 -12 -4 -15 -10z"/>
<path d="M2413 2523 c-7 -2 -13 -9 -13 -14 0 -15 36 -10 50 6 10 12 9 15 -6
14 -11 0 -25 -3 -31 -6z"/>
<path d="M2890 2510 c0 -5 5 -10 10 -10 6 0 10 5 10 10 0 6 -4 10 -10 10 -5 0
-10 -4 -10 -10z"/>
<path d="M1120 2490 c0 -5 5 -10 10 -10 6 0 10 5 10 10 0 6 -4 10 -10 10 -5 0
-10 -4 -10 -10z"/>
<path d="M2670 2490 c0 -5 11 -10 24 -10 14 0 28 5 31 10 4 6 -7 10 -24 10
-17 0 -31 -4 -31 -10z"/>
<path d="M7662 2463 c2 -10 13 -19 26 -21 26 -4 28 6 5 24 -25 18 -35 17 -31
-3z"/>
<path d="M990 2405 c0 -15 46 -44 63 -39 12 4 17 0 18 -13 0 -15 2 -14 11 5
12 25 28 28 46 10 9 -9 12 -9 12 0 0 6 -10 16 -21 23 -17 9 -23 8 -30 -2 -7
-10 -11 -11 -17 -2 -8 13 -82 29 -82 18z"/>
<path d="M7700 2361 c0 -6 5 -13 10 -16 20 -12 9 -25 -15 -19 -18 4 -25 2 -25
-9 0 -8 10 -17 23 -20 12 -3 33 -9 47 -12 24 -7 24 -7 6 7 -10 8 -16 20 -12
26 8 13 -10 52 -24 52 -6 0 -10 -4 -10 -9z"/>
<path d="M7525 2340 c3 -5 8 -10 11 -10 2 0 4 5 4 10 0 6 -5 10 -11 10 -5 0
-7 -4 -4 -10z"/>
<path d="M8130 2285 c7 -8 17 -15 22 -15 6 0 5 7 -2 15 -7 8 -17 15 -22 15 -6
0 -5 -7 2 -15z"/>
<path d="M7790 2280 c20 -13 53 -13 45 0 -3 6 -18 10 -33 10 -21 0 -24 -2 -12
-10z"/>
<path d="M8060 2272 c0 -4 10 -12 22 -17 13 -6 25 -19 27 -30 2 -10 17 -32 34
-47 27 -26 29 -31 17 -53 -10 -18 -11 -31 -3 -48 6 -13 9 -35 6 -49 -4 -21 3
-32 40 -63 25 -21 48 -50 52 -64 5 -18 9 -21 14 -12 6 10 12 7 25 -10 9 -13
16 -29 16 -35 0 -19 22 -31 68 -39 33 -5 42 -4 42 8 0 7 -9 18 -19 23 -11 5
-40 27 -65 48 -24 21 -62 48 -82 60 -21 12 -39 26 -41 32 -7 20 55 21 97 2 38
-18 80 -17 80 1 0 4 -16 22 -35 41 -19 19 -35 42 -35 52 0 10 -6 18 -14 18 -8
0 -18 9 -21 20 -4 11 -17 28 -31 36 -13 9 -24 20 -24 25 0 5 11 2 24 -6 16
-11 26 -13 31 -6 9 16 -3 31 -26 31 -10 0 -19 5 -19 10 0 6 -5 10 -11 10 -6 0
-21 9 -33 21 -34 32 -136 63 -136 41z"/>
<path d="M1975 2200 c-3 -5 -2 -10 4 -10 5 0 13 5 16 10 3 6 2 10 -4 10 -5 0
-13 -4 -16 -10z"/>
<path d="M8340 2103 c0 -5 9 -14 20 -21 11 -7 20 -8 20 -2 0 5 -9 14 -20 20
-11 6 -20 7 -20 3z"/>
<path d="M670 2070 c0 -5 5 -10 11 -10 5 0 7 5 4 10 -3 6 -8 10 -11 10 -2 0
-4 -4 -4 -10z"/>
<path d="M8410 2033 c0 -6 5 -15 10 -18 6 -4 9 -14 8 -23 -2 -12 5 -18 22 -20
14 -2 31 -9 39 -15 12 -10 12 -9 0 11 -8 12 -18 22 -24 22 -5 0 -19 12 -32 28
-12 15 -22 22 -23 15z"/>
<path d="M1895 2000 c-3 -5 1 -10 9 -10 9 0 16 5 16 10 0 6 -4 10 -9 10 -6 0
-13 -4 -16 -10z"/>
<path d="M1850 1980 c0 -5 7 -10 15 -10 8 0 15 5 15 10 0 6 -7 10 -15 10 -8 0
-15 -4 -15 -10z"/>
<path d="M8096 1981 c-3 -5 1 -12 10 -15 20 -8 29 -1 19 13 -8 13 -22 14 -29
2z"/>
<path d="M1572 1969 c-19 -7 -47 -37 -41 -43 5 -5 90 17 107 27 6 5 12 12 12
16 0 9 -53 9 -78 0z"/>
<path d="M1775 1965 l-30 -14 40 2 c22 1 39 6 38 12 -3 15 -16 15 -48 0z"/>
<path d="M1635 1900 c-3 -5 -2 -10 4 -10 5 0 13 5 16 10 3 6 2 10 -4 10 -5 0
-13 -4 -16 -10z"/>
<path d="M8460 1891 c0 -5 9 -19 19 -32 18 -22 20 -22 26 -6 10 25 -1 47 -25
47 -11 0 -20 -4 -20 -9z"/>
<path d="M8183 1863 c-18 -7 -16 -33 2 -33 9 0 18 -7 22 -16 6 -15 52 -39 60
-31 8 9 -21 57 -35 57 -8 0 -20 6 -26 14 -6 7 -17 12 -23 9z"/>
<path d="M1210 1719 c0 -5 5 -7 10 -4 6 3 10 8 10 11 0 2 -4 4 -10 4 -5 0 -10
-5 -10 -11z"/>
<path d="M8508 1723 c6 -2 18 -2 25 0 6 3 1 5 -13 5 -14 0 -19 -2 -12 -5z"/>
<path d="M1148 1703 c-10 -2 -18 -11 -18 -19 0 -13 20 -6 59 23 6 4 -20 2 -41
-4z"/>
<path d="M1281 1673 c-24 -29 -33 -35 -43 -25 -7 7 -19 12 -27 12 -29 0 13
-31 44 -33 22 -1 30 3 33 18 2 11 13 27 24 36 13 10 17 19 10 23 -6 3 -24 -11
-41 -31z"/>
<path d="M8720 1685 c0 -16 5 -19 53 -30 36 -7 28 8 -15 29 -38 20 -38 20 -38
1z"/>
<path d="M8590 1685 c0 -3 16 -21 36 -41 41 -39 61 -38 23 2 -24 26 -59 49
-59 39z"/>
<path d="M1170 1550 l-25 -20 25 0 c38 0 68 11 74 26 8 21 -44 17 -74 -6z"/>
<path d="M8960 1550 c0 -5 4 -10 8 -10 5 0 15 -12 22 -27 7 -16 15 -23 17 -16
3 7 -3 20 -11 29 -9 8 -16 20 -16 25 0 5 -4 9 -10 9 -5 0 -10 -4 -10 -10z"/>
<path d="M8920 1537 c0 -7 12 -25 26 -42 18 -21 24 -24 19 -10 -4 11 -9 28
-12 37 -6 20 -33 33 -33 15z"/>
<path d="M60 1364 c0 -8 5 -12 10 -9 6 4 8 11 5 16 -9 14 -15 11 -15 -7z"/>
<path d="M0 1335 c0 -16 16 -20 24 -6 3 5 -1 11 -9 15 -9 3 -15 0 -15 -9z"/>
<path d="M145 1310 c-3 -5 -2 -10 4 -10 5 0 13 5 16 10 3 6 2 10 -4 10 -5 0
-13 -4 -16 -10z"/>
<path d="M110 1290 c0 -5 5 -10 10 -10 6 0 10 5 10 10 0 6 -4 10 -10 10 -5 0
-10 -4 -10 -10z"/>
<path d="M10 1280 c0 -5 5 -10 10 -10 6 0 10 5 10 10 0 6 -4 10 -10 10 -5 0
-10 -4 -10 -10z"/>
<path d="M100 1240 c0 -5 5 -10 11 -10 5 0 7 5 4 10 -3 6 -8 10 -11 10 -2 0
-4 -4 -4 -10z"/>
<path d="M765 1207 c-12 -7 -19 -20 -17 -29 4 -21 9 -22 51 -7 32 11 32 11 12
30 -23 22 -20 22 -46 6z"/>
<path d="M2 1190 c0 -14 2 -19 5 -12 2 6 2 18 0 25 -3 6 -5 1 -5 -13z"/>
<path d="M35 1180 c-3 -5 -1 -10 4 -10 6 0 11 5 11 10 0 6 -2 10 -4 10 -3 0
-8 -4 -11 -10z"/>
<path d="M837 1153 c-12 -11 -7 -33 7 -33 12 0 26 20 26 36 0 7 -26 5 -33 -3z"/>
<path d="M9245 500 c-8 -14 3 -30 21 -30 8 0 14 9 14 20 0 21 -24 28 -35 10z"/>
<path d="M9186 486 c7 -18 32 -28 39 -16 3 5 -3 14 -14 19 -26 15 -31 14 -25
-3z"/>
<path d="M9245 410 c3 -5 10 -10 16 -10 5 0 9 5 9 10 0 6 -7 10 -16 10 -8 0
-12 -4 -9 -10z"/>
<path d="M232 320 c-16 -27 -15 -50 3 -50 23 0 40 39 23 56 -11 12 -15 11 -26
-6z"/>
<path d="M386 325 c-3 -8 -1 -15 4 -15 6 0 10 7 10 15 0 8 -2 15 -4 15 -2 0
-6 -7 -10 -15z"/>
<path d="M4416 294 c-3 -9 -3 -20 0 -25 8 -13 34 9 34 27 0 19 -26 18 -34 -2z"/>
<path d="M370 241 c0 -23 24 -71 31 -64 6 6 3 23 -7 41 -15 32 -24 40 -24 23z"/>
<path d="M4247 244 c-4 -4 -7 -17 -7 -28 0 -19 1 -19 17 -3 12 11 14 20 7 27
-6 6 -13 7 -17 4z"/>
<path d="M4305 220 c10 -11 22 -17 27 -14 12 8 -11 34 -30 34 -13 0 -12 -3 3
-20z"/>
<path d="M109 142 c-11 -32 -29 -43 -29 -19 -1 29 -20 -24 -26 -72 l-6 -51 29
0 c28 0 29 2 45 78 17 80 8 124 -13 64z"/>
<path d="M4334 155 c-4 -11 -21 -15 -59 -15 -34 0 -61 -6 -76 -17 -13 -10 -33
-23 -44 -29 -13 -7 -22 -26 -26 -53 l-5 -41 224 0 225 0 -32 30 c-17 17 -31
38 -31 49 0 20 -72 58 -100 53 -9 -1 -25 7 -35 18 -22 24 -34 25 -41 5z m111
-55 c0 -7 -6 -15 -12 -17 -8 -3 -13 4 -13 17 0 13 5 20 13 18 6 -3 12 -11 12
-18z"/>
<path d="M4140 135 c-7 -9 -10 -19 -6 -22 8 -9 38 9 44 25 5 17 -23 15 -38 -3z"/>
<path d="M2404 112 c-31 -26 -51 -73 -39 -92 4 -6 21 -4 42 5 50 21 66 20 58
-5 -4 -14 -2 -20 9 -20 41 0 63 31 30 44 -8 3 -13 10 -9 16 4 6 15 6 31 0 38
-15 44 -12 44 15 0 27 -4 30 -58 39 -30 5 -32 4 -26 -19 5 -20 2 -25 -14 -25
-30 0 -52 11 -52 25 0 7 5 15 12 17 6 2 9 9 7 15 -2 7 -16 1 -35 -15z"/>
<path d="M9858 123 c7 -3 16 -2 19 1 4 3 -2 6 -13 5 -11 0 -14 -3 -6 -6z"/>
<path d="M9325 81 c27 -53 52 -54 40 -2 -5 24 -12 31 -31 31 -24 0 -24 -1 -9
-29z"/>
<path d="M4625 50 c-8 -13 13 -52 25 -45 4 3 7 13 5 23 -2 9 -4 20 -4 25 -1
10 -19 9 -26 -3z"/>
<path d="M3646 31 c-3 -5 3 -11 14 -14 13 -3 20 0 20 9 0 15 -26 19 -34 5z"/>
<path d="M3883 15 c-17 -13 -16 -14 15 -15 33 0 43 13 18 23 -8 3 -22 -1 -33
-8z"/>
<path d="M3690 10 c0 -6 7 -10 15 -10 8 0 15 2 15 4 0 2 -7 6 -15 10 -8 3 -15
1 -15 -4z"/>
<path d="M3975 10 c-4 -6 5 -10 19 -10 14 0 26 5 26 10 0 6 -9 10 -19 10 -11
0 -23 -4 -26 -10z"/>
</g>
</svg>
