<?xml version="1.0" standalone="no"?>
<!DOCTYPE svg PUBLIC "-//W3C//DTD SVG 20010904//EN"
 "http://www.w3.org/TR/2001/REC-SVG-20010904/DTD/svg10.dtd">
<svg version="1.0" xmlns="http://www.w3.org/2000/svg"
 width="1000.000000pt" height="500.000000pt" viewBox="0 0 1000.000000 500.000000"
 preserveAspectRatio="xMidYMid meet">

<g transform="translate(0.000000,500.000000) scale(0.100000,-0.100000)"
fill="#000000" stroke="none">
<path d="M0 2500 l0 -2500 198 1 c108 1 189 3 178 6 -14 4 -17 12 -13 36 5 40
0 57 -19 57 -9 0 -14 8 -13 17 4 34 -13 93 -27 93 -8 0 -14 9 -14 21 0 15 4
19 16 15 13 -5 15 -2 9 11 -4 10 -14 36 -22 58 -8 21 -21 51 -28 65 -32 58
-44 99 -50 168 -4 39 -10 72 -14 72 -4 0 -5 15 -3 34 2 18 -1 37 -7 40 -6 4
-11 19 -11 34 0 15 -7 40 -15 56 -9 17 -16 61 -18 106 -1 49 -7 83 -16 94 -11
13 -17 65 -22 194 -4 97 -13 195 -18 217 -16 60 -15 507 1 517 10 6 10 8 0 8
-7 0 -11 4 -7 9 3 6 1 28 -4 50 -6 29 -4 58 6 103 8 35 19 133 24 218 6 85 14
159 19 164 6 6 10 41 10 78 0 41 6 81 15 97 8 16 19 59 25 97 6 38 16 71 21
75 6 3 10 15 8 25 -4 26 11 84 21 84 4 0 10 19 14 43 11 66 50 177 63 177 8 0
13 21 15 58 3 48 7 59 25 67 16 7 21 15 17 28 -3 10 0 25 7 33 7 8 16 40 20
70 4 30 13 62 21 71 7 9 20 41 29 72 12 42 20 55 33 53 10 -2 16 4 16 17 0 37
51 176 70 192 11 9 16 19 13 23 -10 9 29 86 43 86 7 0 14 14 16 33 2 18 8 31
15 30 15 -3 36 33 30 50 -2 7 9 33 24 58 14 25 30 55 33 66 4 11 20 33 36 49
16 16 30 40 30 53 0 13 13 40 29 60 15 20 33 46 40 59 7 12 16 20 20 17 10 -6
21 18 21 46 0 10 7 19 15 19 8 0 17 11 21 24 3 13 14 26 25 29 10 3 19 12 19
22 0 9 12 28 26 43 14 15 30 36 35 47 5 11 17 31 27 45 9 14 26 40 37 58 11
17 24 32 28 32 12 0 55 49 94 108 19 28 39 52 44 52 5 0 9 7 9 15 0 8 4 15 9
15 9 0 61 46 61 55 0 3 -306 5 -680 5 l-680 0 0 -2500z"/>
<path d="M8640 4990 c0 -6 9 -18 21 -28 70 -59 79 -70 77 -93 -2 -18 2 -24 16
-24 10 0 22 -10 27 -22 5 -14 14 -21 23 -17 21 8 60 -68 43 -85 -8 -8 -6 -11
10 -11 11 0 23 -7 27 -15 3 -8 13 -15 21 -15 11 0 15 -6 10 -19 -4 -13 4 -26
25 -45 18 -14 36 -26 41 -26 5 0 9 -6 9 -14 0 -8 7 -16 15 -20 9 -3 15 -18 15
-36 0 -23 4 -30 20 -30 13 0 20 -7 20 -19 0 -10 7 -24 15 -31 8 -7 15 -21 15
-31 0 -12 5 -16 15 -13 10 4 15 0 15 -13 0 -11 9 -28 20 -38 11 -10 17 -21 14
-26 -3 -5 4 -16 16 -26 11 -10 20 -22 20 -28 0 -6 9 -18 20 -28 11 -9 20 -26
20 -37 0 -11 6 -20 14 -20 17 0 28 -24 20 -45 -4 -8 1 -17 10 -21 9 -3 16 -10
16 -16 0 -5 -4 -6 -10 -3 -5 3 -10 3 -10 -2 1 -13 24 -39 42 -46 9 -3 18 -16
20 -29 2 -13 7 -21 12 -20 14 6 26 -21 26 -60 0 -39 15 -52 23 -20 3 11 5 9 6
-8 2 -43 13 -69 29 -72 13 -2 16 -14 13 -56 -2 -48 10 -69 23 -39 4 8 5 7 5
-3 -2 -32 2 -42 15 -37 15 6 32 -49 28 -90 -2 -17 1 -21 13 -17 20 8 33 -25
14 -36 -7 -5 -10 -13 -5 -17 5 -4 11 -2 13 5 9 25 21 10 27 -35 3 -27 13 -61
21 -77 8 -15 15 -41 15 -57 0 -18 5 -29 14 -29 20 0 50 -61 35 -70 -7 -5 -5
-9 5 -13 9 -4 16 -16 16 -27 0 -11 6 -31 14 -43 7 -12 17 -58 20 -102 5 -53
12 -83 22 -88 8 -4 14 -19 14 -32 0 -13 6 -30 14 -37 7 -8 17 -48 21 -89 4
-41 12 -77 18 -80 5 -4 12 -42 14 -85 3 -48 12 -95 24 -120 10 -22 19 -50 19
-63 0 -12 4 -30 9 -40 6 -10 13 -78 17 -152 3 -78 11 -142 19 -154 13 -22 24
-208 25 -425 0 -211 -12 -503 -21 -522 -5 -9 -13 -79 -19 -157 -6 -77 -17
-156 -26 -176 -8 -19 -12 -46 -8 -59 3 -14 -2 -40 -15 -66 -11 -24 -18 -46
-16 -50 3 -4 -2 -13 -11 -20 -10 -9 -12 -15 -4 -20 14 -8 3 -100 -11 -100 -5
0 -9 -24 -9 -52 0 -29 -5 -60 -10 -68 -8 -12 -10 -12 -10 -1 0 33 -10 0 -20
-69 -12 -79 -31 -143 -55 -190 -8 -16 -15 -43 -15 -60 0 -18 -6 -33 -15 -36
-8 -4 -15 -18 -15 -33 0 -15 -5 -32 -12 -39 -9 -9 30 -12 175 -12 l187 0 0
2500 0 2500 -680 0 c-451 0 -680 -3 -680 -10z"/>
<path d="M3880 4219 c-19 -16 -40 -29 -47 -29 -21 0 -45 -46 -41 -81 7 -74
113 -101 189 -48 19 13 36 25 38 27 3 1 -10 17 -27 35 -22 23 -32 43 -32 65 0
25 -4 32 -19 32 -11 0 -21 6 -23 14 -2 10 -12 6 -38 -15z"/>
<path d="M5345 4240 c3 -5 10 -10 16 -10 5 0 9 5 9 10 0 6 -7 10 -16 10 -8 0
-12 -4 -9 -10z"/>
<path d="M4144 4176 c-6 -17 2 -36 17 -36 12 0 12 37 -1 45 -6 3 -13 -1 -16
-9z"/>
<path d="M4190 4155 c0 -16 34 -38 44 -28 3 3 6 15 6 25 0 13 -7 18 -25 18
-15 0 -25 -6 -25 -15z"/>
<path d="M1040 4108 c-44 -48 -74 -120 -56 -138 22 -22 91 -1 101 32 4 10 10
18 14 18 5 0 16 20 25 44 13 35 15 50 6 65 -17 32 -47 25 -90 -21z"/>
<path d="M5263 4135 c-24 -10 -33 -21 -33 -38 0 -29 -10 -40 -25 -27 -6 5 -29
12 -52 16 -35 5 -42 3 -47 -14 -4 -11 -16 -22 -26 -25 -24 -6 -26 -30 -4 -51
21 -22 40 -20 58 6 l16 22 0 -29 c0 -17 -4 -36 -9 -44 -11 -18 -3 -41 14 -41
8 0 15 -14 17 -32 2 -18 7 -31 11 -28 5 3 15 -10 23 -29 18 -42 18 -41 -5 -41
-28 0 -38 -22 -16 -34 10 -6 25 -19 34 -28 8 -10 25 -18 38 -18 12 0 28 -7 37
-15 22 -22 64 -36 90 -29 14 3 27 -1 35 -10 19 -22 41 -20 41 4 0 11 6 20 13
20 16 0 47 -31 47 -47 0 -12 43 -53 55 -53 5 0 20 -11 34 -24 38 -34 127 -63
150 -49 14 9 22 8 32 -1 8 -7 34 -18 59 -25 25 -7 52 -22 61 -34 l17 -20 6 20
c5 16 17 22 47 25 22 2 43 0 45 -4 3 -4 0 -26 -6 -48 -10 -38 -9 -43 14 -71
27 -32 33 -49 16 -49 -5 0 -10 5 -10 11 0 6 -10 9 -22 7 -33 -4 -30 -40 6 -56
22 -11 33 -12 50 -2 18 9 33 8 74 -5 32 -11 63 -15 80 -10 15 4 86 9 157 11
118 4 132 6 148 26 10 12 15 28 11 37 -19 46 -18 52 12 49 25 -3 29 1 37 35 5
20 7 44 4 52 -8 19 -75 31 -90 16 -6 -6 -19 -11 -28 -11 -12 0 -19 -13 -25
-46 -10 -48 -26 -59 -34 -22 -3 12 -19 30 -36 40 -26 15 -33 16 -56 4 -15 -8
-29 -12 -32 -9 -2 3 -21 0 -40 -7 -25 -8 -36 -18 -36 -31 0 -12 -7 -19 -20
-19 -23 0 -24 3 -8 30 10 16 9 23 -12 46 -14 14 -42 35 -62 45 -23 12 -35 24
-32 33 3 7 -6 21 -20 30 -15 9 -26 25 -26 36 0 10 -11 27 -25 38 -25 20 -34
62 -21 94 5 11 -2 27 -21 48 l-29 32 -38 -16 c-21 -9 -46 -16 -56 -16 -30 0
-82 -31 -76 -46 3 -9 -2 -14 -15 -14 -11 0 -22 7 -25 15 -4 8 -17 15 -30 15
-23 0 -54 33 -54 58 0 9 5 10 18 3 77 -41 179 21 196 122 6 32 2 43 -29 84
-41 53 -92 82 -147 83 -27 0 -40 6 -48 20 -13 24 -52 26 -70 5 -7 -8 -21 -15
-32 -15 -32 0 -68 -45 -68 -85 0 -31 5 -38 31 -49 25 -10 69 -62 69 -81 0 -9
-75 30 -83 43 -11 17 -34 15 -45 -4 -7 -13 -13 -14 -31 -5 -23 13 -20 31 5 31
10 0 14 14 14 54 0 44 -4 58 -20 69 -13 9 -18 20 -14 31 18 46 -64 71 -133 41z
m201 -292 c-4 -10 -8 -31 -8 -48 -2 -53 -21 -43 -24 13 -3 48 -1 52 19 52 16
0 19 -4 13 -17z"/>
<path d="M4068 4119 c-21 -11 -38 -24 -38 -29 0 -30 106 -33 117 -3 5 13 -23
54 -36 52 -3 -1 -23 -10 -43 -20z"/>
<path d="M4166 4094 c-10 -27 -7 -34 19 -34 27 0 33 18 13 38 -16 16 -25 15
-32 -4z"/>
<path d="M4075 4014 c-21 -22 -8 -34 41 -40 51 -6 70 6 55 35 -14 26 -72 29
-96 5z"/>
<path d="M4395 4007 c-17 -13 -17 -15 4 -36 17 -17 31 -21 64 -19 53 4 56 26
7 50 -43 21 -51 22 -75 5z"/>
<path d="M4326 3976 c7 -19 58 -22 52 -3 -3 6 -17 13 -31 15 -21 3 -26 0 -21
-12z"/>
<path d="M4720 3950 c0 -5 5 -10 11 -10 5 0 7 5 4 10 -3 6 -8 10 -11 10 -2 0
-4 -4 -4 -10z"/>
<path d="M4304 3925 c-7 -16 12 -45 29 -45 5 0 16 -8 24 -17 13 -16 14 -14 8
22 -4 22 -9 43 -11 47 -9 14 -44 8 -50 -7z"/>
<path d="M4455 3896 c-28 -20 -12 -50 23 -41 35 8 46 20 39 39 -8 20 -37 21
-62 2z"/>
<path d="M5070 3787 c0 -19 10 -27 26 -20 21 8 17 33 -6 33 -11 0 -20 -6 -20
-13z"/>
<path d="M4320 3755 c0 -10 7 -15 18 -13 21 4 19 22 -2 26 -10 2 -16 -3 -16
-13z"/>
<path d="M6103 3574 c-3 -9 3 -25 16 -37 l21 -21 0 21 c0 12 5 25 11 29 8 4 7
9 -2 15 -21 13 -39 11 -46 -7z"/>
<path d="M6225 3549 c-4 -5 -18 -14 -31 -19 -13 -5 -24 -17 -24 -26 0 -20 60
-84 78 -84 29 0 72 41 72 68 0 47 -75 95 -95 61z"/>
<path d="M8427 3243 c-3 -5 -8 -22 -11 -40 -6 -27 -3 -34 27 -57 59 -45 81
-28 65 52 -10 50 -12 52 -44 52 -18 0 -35 -3 -37 -7z"/>
<path d="M310 3120 c0 -5 5 -10 11 -10 5 0 7 5 4 10 -3 6 -8 10 -11 10 -2 0
-4 -4 -4 -10z"/>
<path d="M7840 3121 c0 -6 5 -13 10 -16 6 -3 10 1 10 9 0 9 -4 16 -10 16 -5 0
-10 -4 -10 -9z"/>
<path d="M692 3046 c1 -10 8 -17 13 -17 15 1 12 24 -3 29 -9 3 -13 -2 -10 -12z"/>
<path d="M5916 3033 c-13 -13 -6 -42 9 -37 16 7 20 30 6 38 -4 3 -11 3 -15 -1z"/>
<path d="M861 2989 c-38 -15 -50 -40 -51 -101 0 -55 1 -58 25 -58 34 0 63 35
71 85 11 75 0 92 -45 74z"/>
<path d="M9676 2635 c-18 -47 20 -160 54 -160 20 0 19 99 -1 140 -16 34 -43
44 -53 20z"/>
<path d="M385 2530 c-4 -6 -3 -16 3 -22 6 -6 12 -6 17 2 4 6 3 16 -3 22 -6 6
-12 6 -17 -2z"/>
<path d="M1566 1756 c-32 -55 -33 -76 -2 -105 36 -34 71 -22 97 34 22 46 20
73 -7 100 -29 29 -60 18 -88 -29z"/>
<path d="M4185 1700 c-11 -4 -31 -6 -45 -4 -27 5 -59 -10 -47 -22 3 -4 24 -8
44 -9 21 -1 40 -3 43 -4 2 0 -10 -15 -29 -31 -18 -17 -31 -35 -29 -42 6 -16
93 -41 121 -34 20 5 24 11 22 38 -1 18 -5 42 -10 52 -6 13 -3 22 8 31 14 10
14 12 -4 23 -21 14 -45 14 -74 2z"/>
<path d="M3915 1650 c-3 -6 -4 -19 0 -29 4 -13 0 -20 -15 -24 -28 -7 -25 -31
5 -45 46 -21 58 -16 52 23 -3 19 -1 37 4 40 13 8 -8 45 -26 45 -7 0 -17 -5
-20 -10z"/>
<path d="M4364 1598 c-10 -10 -24 -36 -31 -56 -25 -71 -14 -96 44 -108 24 -5
37 0 67 26 20 18 36 41 36 54 0 33 -34 80 -68 92 -27 10 -33 9 -48 -8z"/>
<path d="M4295 1581 c-3 -5 -1 -12 5 -16 5 -3 10 1 10 9 0 18 -6 21 -15 7z"/>
<path d="M2717 1555 c-40 -28 -49 -60 -18 -70 20 -6 19 -41 -3 -60 -6 -5 -17
-23 -24 -38 -9 -22 -17 -27 -32 -22 -11 4 -20 2 -20 -4 0 -6 7 -11 16 -11 9 0
22 -7 29 -17 17 -23 45 -10 45 22 0 28 21 33 39 11 10 -12 16 -12 41 0 24 13
30 22 35 67 7 55 -2 88 -34 125 -24 28 -28 28 -74 -3z"/>
<path d="M2292 1520 c-11 -31 -2 -91 15 -97 22 -9 30 11 23 64 -5 50 -25 68
-38 33z"/>
<path d="M9566 1508 c-9 -12 -16 -33 -16 -46 0 -32 42 -122 57 -122 36 0 43
12 43 75 0 83 -12 115 -44 115 -14 0 -31 -9 -40 -22z"/>
<path d="M3222 1486 c-31 -15 -35 -35 -27 -127 6 -72 9 -80 31 -85 13 -3 43 0
66 8 l43 13 -2 52 c-2 38 -11 65 -33 102 -33 53 -40 56 -78 37z"/>
<path d="M9322 1443 c-19 -7 -52 -78 -52 -110 1 -15 7 -39 15 -53 8 -14 14
-35 15 -48 0 -19 5 -23 28 -20 26 3 27 6 25 51 -1 26 -7 54 -13 62 -10 12 -9
20 4 40 32 48 19 95 -22 78z"/>
<path d="M2235 1430 c-3 -5 -3 -10 1 -10 3 0 -1 -12 -11 -26 -15 -24 -16 -28
-1 -42 14 -14 17 -14 34 1 10 9 26 17 35 17 9 0 17 5 17 10 0 6 -11 10 -25 10
-22 0 -24 3 -16 19 6 10 7 21 4 25 -10 9 -31 7 -38 -4z"/>
<path d="M9410 1420 c0 -11 5 -20 10 -20 6 0 10 9 10 20 0 11 -4 20 -10 20 -5
0 -10 -9 -10 -20z"/>
<path d="M2435 1420 c-4 -6 -3 -16 3 -22 6 -6 12 -6 17 2 4 6 3 16 -3 22 -6 6
-12 6 -17 -2z"/>
<path d="M2094 1365 c-4 -8 -12 -15 -20 -15 -9 0 -14 -12 -14 -35 0 -19 4 -35
9 -35 5 0 11 -12 13 -27 3 -25 7 -28 41 -30 33 -1 37 2 37 23 0 15 -6 24 -15
24 -18 0 -19 14 -3 39 9 15 9 25 0 45 -13 29 -39 34 -48 11z"/>
<path d="M2350 1356 c0 -18 27 -39 40 -31 5 3 10 15 10 26 0 14 -7 19 -25 19
-15 0 -25 -6 -25 -14z"/>
<path d="M3500 1360 c0 -5 5 -10 10 -10 6 0 10 5 10 10 0 6 -4 10 -10 10 -5 0
-10 -4 -10 -10z"/>
<path d="M9527 1346 c-6 -15 1 -26 15 -26 4 0 8 9 8 20 0 23 -15 27 -23 6z"/>
<path d="M2460 1340 c0 -5 5 -10 10 -10 6 0 10 5 10 10 0 6 -4 10 -10 10 -5 0
-10 -4 -10 -10z"/>
<path d="M4857 1257 c-34 -28 -36 -70 -5 -91 62 -44 117 8 84 79 -20 41 -42
45 -79 12z"/>
<path d="M8302 1268 c-7 -7 -12 -22 -12 -35 0 -18 6 -23 24 -23 13 0 30 -10
39 -22 14 -22 16 -22 33 -6 16 16 16 18 -10 48 -14 17 -26 36 -26 41 0 13 -34
11 -48 -3z"/>
<path d="M8420 1240 c-9 -16 -9 -25 -1 -33 16 -16 46 4 46 29 0 27 -31 29 -45
4z"/>
<path d="M8006 1231 c-4 -5 -2 -12 3 -15 5 -4 12 -2 15 3 4 5 2 12 -3 15 -5 4
-12 2 -15 -3z"/>
<path d="M8200 1220 c0 -5 7 -10 15 -10 8 0 15 5 15 10 0 6 -7 10 -15 10 -8 0
-15 -4 -15 -10z"/>
<path d="M8254 1157 c-7 -20 1 -47 15 -47 17 0 22 33 7 49 -14 13 -16 13 -22
-2z"/>
<path d="M2710 1125 c0 -9 5 -15 11 -13 6 2 11 8 11 13 0 5 -5 11 -11 13 -6 2
-11 -4 -11 -13z"/>
<path d="M3022 1058 c5 -15 37 -18 41 -3 1 6 -9 12 -22 13 -16 3 -22 -1 -19
-10z"/>
<path d="M2435 990 c-3 -5 1 -10 10 -10 9 0 13 5 10 10 -3 6 -8 10 -10 10 -2
0 -7 -4 -10 -10z"/>
<path d="M7915 950 c-3 -5 1 -10 9 -10 9 0 16 5 16 10 0 6 -4 10 -9 10 -6 0
-13 -4 -16 -10z"/>
</g>
</svg>
